G04 #@! TF.FileFunction,Soldermask,Bot*
%FSLAX46Y46*%
G04 Gerber Fmt 4.6, Leading zero omitted, Abs format (unit mm)*
G04 Created by KiCad (PCBNEW 4.0.2-stable) date 8/12/2016 8:24:09 AM*
%MOMM*%
G01*
G04 APERTURE LIST*
%ADD10C,0.100000*%
%ADD11O,2.700000X2.000000*%
%ADD12C,2.127200*%
%ADD13R,2.432000X2.432000*%
%ADD14O,2.432000X2.432000*%
%ADD15C,4.210000*%
G04 APERTURE END LIST*
D10*
D11*
X247904000Y-80518000D03*
X247904000Y-77978000D03*
X247904000Y-75438000D03*
X247904000Y-72898000D03*
X247904000Y-70358000D03*
X247904000Y-67818000D03*
X247904000Y-65278000D03*
X247904000Y-62738000D03*
X240284000Y-62738000D03*
X240284000Y-65278000D03*
X240284000Y-67818000D03*
X240284000Y-70358000D03*
X240284000Y-72898000D03*
X240284000Y-75438000D03*
X240284000Y-77978000D03*
X240284000Y-80518000D03*
D12*
X235712000Y-94488000D03*
X235712000Y-91948000D03*
X235712000Y-89408000D03*
X235712000Y-86868000D03*
X235712000Y-84328000D03*
X235712000Y-81788000D03*
X235712000Y-79248000D03*
X235712000Y-76708000D03*
X235712000Y-74168000D03*
X235712000Y-71628000D03*
X235712000Y-69088000D03*
X235712000Y-66548000D03*
X235712000Y-64008000D03*
X235712000Y-61468000D03*
X233172000Y-61468000D03*
X230632000Y-61468000D03*
X228092000Y-61468000D03*
X225552000Y-61468000D03*
X223012000Y-61468000D03*
X220472000Y-61468000D03*
X220472000Y-69088000D03*
X220472000Y-89408000D03*
X220472000Y-74168000D03*
X220472000Y-71628000D03*
X220472000Y-91948000D03*
X220472000Y-84328000D03*
X220472000Y-94488000D03*
X220472000Y-81788000D03*
X220472000Y-79248000D03*
X220472000Y-76708000D03*
X220472000Y-86868000D03*
X220472000Y-64008000D03*
X220472000Y-66548000D03*
D13*
X246380000Y-90170000D03*
D14*
X248920000Y-90170000D03*
D13*
X211582000Y-89662000D03*
D14*
X214122000Y-89662000D03*
X216662000Y-89662000D03*
D13*
X240030000Y-90170000D03*
D14*
X242570000Y-90170000D03*
D15*
X203200000Y-81737200D03*
X203200000Y-87736680D03*
X207899000Y-84736940D03*
M02*
