G04 #@! TF.FileFunction,Copper,L1,Top,Signal*
%FSLAX46Y46*%
G04 Gerber Fmt 4.6, Leading zero omitted, Abs format (unit mm)*
G04 Created by KiCad (PCBNEW 4.0.2-stable) date 8/12/2016 8:24:09 AM*
%MOMM*%
G01*
G04 APERTURE LIST*
%ADD10C,0.100000*%
%ADD11O,2.300000X1.600000*%
%ADD12C,1.727200*%
%ADD13R,2.032000X2.032000*%
%ADD14O,2.032000X2.032000*%
%ADD15R,0.800000X0.750000*%
%ADD16C,3.810000*%
%ADD17R,1.800860X2.499360*%
%ADD18R,3.000000X1.000000*%
%ADD19R,3.657600X2.032000*%
%ADD20R,1.016000X2.032000*%
%ADD21C,0.685800*%
%ADD22C,0.508000*%
%ADD23C,0.254000*%
%ADD24C,0.762000*%
G04 APERTURE END LIST*
D10*
D11*
X247904000Y-80518000D03*
X247904000Y-77978000D03*
X247904000Y-75438000D03*
X247904000Y-72898000D03*
X247904000Y-70358000D03*
X247904000Y-67818000D03*
X247904000Y-65278000D03*
X247904000Y-62738000D03*
X240284000Y-62738000D03*
X240284000Y-65278000D03*
X240284000Y-67818000D03*
X240284000Y-70358000D03*
X240284000Y-72898000D03*
X240284000Y-75438000D03*
X240284000Y-77978000D03*
X240284000Y-80518000D03*
D12*
X235712000Y-94488000D03*
X235712000Y-91948000D03*
X235712000Y-89408000D03*
X235712000Y-86868000D03*
X235712000Y-84328000D03*
X235712000Y-81788000D03*
X235712000Y-79248000D03*
X235712000Y-76708000D03*
X235712000Y-74168000D03*
X235712000Y-71628000D03*
X235712000Y-69088000D03*
X235712000Y-66548000D03*
X235712000Y-64008000D03*
X235712000Y-61468000D03*
X233172000Y-61468000D03*
X230632000Y-61468000D03*
X228092000Y-61468000D03*
X225552000Y-61468000D03*
X223012000Y-61468000D03*
X220472000Y-61468000D03*
X220472000Y-69088000D03*
X220472000Y-89408000D03*
X220472000Y-74168000D03*
X220472000Y-71628000D03*
X220472000Y-91948000D03*
X220472000Y-84328000D03*
X220472000Y-94488000D03*
X220472000Y-81788000D03*
X220472000Y-79248000D03*
X220472000Y-76708000D03*
X220472000Y-86868000D03*
X220472000Y-64008000D03*
X220472000Y-66548000D03*
D13*
X246380000Y-90170000D03*
D14*
X248920000Y-90170000D03*
D13*
X211582000Y-89662000D03*
D14*
X214122000Y-89662000D03*
X216662000Y-89662000D03*
D13*
X240030000Y-90170000D03*
D14*
X242570000Y-90170000D03*
D15*
X210312000Y-73914000D03*
X211812000Y-73914000D03*
X213614000Y-84836000D03*
X215114000Y-84836000D03*
X212102000Y-59944000D03*
X213602000Y-59944000D03*
X216384000Y-73914000D03*
X214884000Y-73914000D03*
D16*
X203200000Y-81737200D03*
X203200000Y-87736680D03*
X207899000Y-84736940D03*
D17*
X203708000Y-73439020D03*
X203708000Y-77436980D03*
X203708000Y-65057020D03*
X203708000Y-69054980D03*
X213360000Y-77470000D03*
X213360000Y-81467960D03*
D18*
X203708000Y-61242000D03*
X203708000Y-56642000D03*
D19*
X212852000Y-69850000D03*
D20*
X212852000Y-63246000D03*
X210566000Y-63246000D03*
X215138000Y-63246000D03*
D21*
X209550000Y-72136000D03*
X210566000Y-65532000D03*
D22*
X210566000Y-63246000D02*
X210566000Y-65532000D01*
X210312000Y-72898000D02*
X210312000Y-73914000D01*
X209550000Y-72136000D02*
X210312000Y-72898000D01*
X210566000Y-63246000D02*
X210566000Y-61480000D01*
X210566000Y-61480000D02*
X212102000Y-59944000D01*
X212102000Y-59944000D02*
X212102000Y-56642000D01*
X212090000Y-56896000D02*
X212090000Y-56642000D01*
X212090000Y-56654000D02*
X212090000Y-56896000D01*
X212102000Y-56642000D02*
X212090000Y-56654000D01*
X203708000Y-56642000D02*
X212090000Y-56642000D01*
X212090000Y-56642000D02*
X241808000Y-56642000D01*
X241808000Y-56642000D02*
X247904000Y-62738000D01*
D23*
X210566000Y-74168000D02*
X210578000Y-74168000D01*
X213360000Y-81467960D02*
X213360000Y-84582000D01*
X213360000Y-84582000D02*
X213614000Y-84836000D01*
X212852000Y-63246000D02*
X212852000Y-66294000D01*
X210245960Y-81467960D02*
X213360000Y-81467960D01*
X208026000Y-79248000D02*
X210245960Y-81467960D01*
X208026000Y-67310000D02*
X208026000Y-79248000D01*
X208788000Y-66548000D02*
X208026000Y-67310000D01*
X212598000Y-66548000D02*
X208788000Y-66548000D01*
X212852000Y-66294000D02*
X212598000Y-66548000D01*
X213360000Y-77470000D02*
X216662000Y-77470000D01*
X220472000Y-94488000D02*
X226568000Y-94488000D01*
X244094000Y-84328000D02*
X240284000Y-80518000D01*
X244094000Y-93472000D02*
X244094000Y-84328000D01*
X241554000Y-96012000D02*
X244094000Y-93472000D01*
X228092000Y-96012000D02*
X241554000Y-96012000D01*
X226568000Y-94488000D02*
X228092000Y-96012000D01*
X216662000Y-89662000D02*
X216662000Y-77978000D01*
X216662000Y-77978000D02*
X216662000Y-77470000D01*
X216662000Y-77470000D02*
X216662000Y-74192000D01*
X216662000Y-74192000D02*
X216384000Y-73914000D01*
X216662000Y-89662000D02*
X216662000Y-91948000D01*
X219202000Y-94488000D02*
X220472000Y-94488000D01*
X216662000Y-91948000D02*
X219202000Y-94488000D01*
X203708000Y-73439020D02*
X205519020Y-73439020D01*
X205994000Y-78943200D02*
X203200000Y-81737200D01*
X205994000Y-73914000D02*
X205994000Y-78943200D01*
X205519020Y-73439020D02*
X205994000Y-73914000D01*
X203708000Y-69054980D02*
X203708000Y-73439020D01*
X201571860Y-82699860D02*
X203708000Y-82699860D01*
X235712000Y-69088000D02*
X235712000Y-68834000D01*
X235712000Y-68834000D02*
X237998000Y-66548000D01*
X237998000Y-66548000D02*
X237998000Y-65024000D01*
X237998000Y-65024000D02*
X240284000Y-62738000D01*
X235712000Y-71628000D02*
X235712000Y-71374000D01*
X235712000Y-71374000D02*
X237998000Y-69088000D01*
X237998000Y-69088000D02*
X237998000Y-67564000D01*
X237998000Y-67564000D02*
X240284000Y-65278000D01*
X203708000Y-61242000D02*
X203708000Y-65057020D01*
X203708000Y-64907160D02*
X203708000Y-64262000D01*
D22*
X247904000Y-75438000D02*
X246634000Y-75438000D01*
X245364000Y-76708000D02*
X245364000Y-89154000D01*
X246634000Y-75438000D02*
X245364000Y-76708000D01*
X245364000Y-89154000D02*
X246380000Y-90170000D01*
D24*
X245618000Y-89408000D02*
X246380000Y-90170000D01*
D23*
X245872000Y-89662000D02*
X246380000Y-90170000D01*
D22*
X248920000Y-90170000D02*
X250190000Y-88900000D01*
X250190000Y-69596000D02*
X248412000Y-67818000D01*
X250190000Y-88900000D02*
X250190000Y-69596000D01*
X248412000Y-67818000D02*
X247904000Y-67818000D01*
X240030000Y-90170000D02*
X240030000Y-89916000D01*
X240030000Y-89916000D02*
X237490000Y-87376000D01*
X237490000Y-87376000D02*
X237490000Y-70612000D01*
X237490000Y-70612000D02*
X240284000Y-67818000D01*
X242570000Y-90170000D02*
X242570000Y-89154000D01*
X242570000Y-89154000D02*
X238506000Y-85090000D01*
X238506000Y-85090000D02*
X238506000Y-77216000D01*
X238506000Y-77216000D02*
X240284000Y-75438000D01*
D23*
G36*
X201756559Y-55677910D02*
X201611569Y-55890110D01*
X201560560Y-56142000D01*
X201560560Y-57142000D01*
X201604838Y-57377317D01*
X201743910Y-57593441D01*
X201956110Y-57738431D01*
X202208000Y-57789440D01*
X205208000Y-57789440D01*
X205443317Y-57745162D01*
X205659441Y-57606090D01*
X205710748Y-57531000D01*
X211213000Y-57531000D01*
X211213000Y-59159879D01*
X211105569Y-59317110D01*
X211054560Y-59569000D01*
X211054560Y-59734204D01*
X209937382Y-60851382D01*
X209744671Y-61139794D01*
X209677000Y-61480000D01*
X209677000Y-61720582D01*
X209606559Y-61765910D01*
X209461569Y-61978110D01*
X209410560Y-62230000D01*
X209410560Y-64262000D01*
X209454838Y-64497317D01*
X209593910Y-64713441D01*
X209677000Y-64770214D01*
X209677000Y-65122945D01*
X209588270Y-65336630D01*
X209587931Y-65725663D01*
X209612862Y-65786000D01*
X208788000Y-65786000D01*
X208496395Y-65844004D01*
X208454188Y-65872206D01*
X208249185Y-66009184D01*
X207487185Y-66771185D01*
X207322004Y-67018395D01*
X207264000Y-67310000D01*
X207264000Y-79248000D01*
X207322004Y-79539605D01*
X207465386Y-79754190D01*
X207487185Y-79786815D01*
X209707145Y-82006776D01*
X209954356Y-82171957D01*
X210245960Y-82229960D01*
X211812130Y-82229960D01*
X211812130Y-82717640D01*
X211856408Y-82952957D01*
X211995480Y-83169081D01*
X212207680Y-83314071D01*
X212459570Y-83365080D01*
X212598000Y-83365080D01*
X212598000Y-84305745D01*
X212566560Y-84461000D01*
X212566560Y-85211000D01*
X212610838Y-85446317D01*
X212749910Y-85662441D01*
X212962110Y-85807431D01*
X213214000Y-85858440D01*
X214014000Y-85858440D01*
X214249317Y-85814162D01*
X214352646Y-85747671D01*
X214354302Y-85749327D01*
X214587691Y-85846000D01*
X214828250Y-85846000D01*
X214987000Y-85687250D01*
X214987000Y-84963000D01*
X214967000Y-84963000D01*
X214967000Y-84709000D01*
X214987000Y-84709000D01*
X214987000Y-83984750D01*
X214828250Y-83826000D01*
X214587691Y-83826000D01*
X214354302Y-83922673D01*
X214352932Y-83924043D01*
X214265890Y-83864569D01*
X214122000Y-83835431D01*
X214122000Y-83365080D01*
X214260430Y-83365080D01*
X214495747Y-83320802D01*
X214711871Y-83181730D01*
X214856861Y-82969530D01*
X214907870Y-82717640D01*
X214907870Y-80218280D01*
X214863592Y-79982963D01*
X214724520Y-79766839D01*
X214512320Y-79621849D01*
X214260430Y-79570840D01*
X212459570Y-79570840D01*
X212224253Y-79615118D01*
X212008129Y-79754190D01*
X211863139Y-79966390D01*
X211812130Y-80218280D01*
X211812130Y-80705960D01*
X210561591Y-80705960D01*
X208788000Y-78932370D01*
X208788000Y-72756837D01*
X208995341Y-72964540D01*
X209210750Y-73053986D01*
X209367650Y-73210886D01*
X209315569Y-73287110D01*
X209264560Y-73539000D01*
X209264560Y-74289000D01*
X209308838Y-74524317D01*
X209447910Y-74740441D01*
X209660110Y-74885431D01*
X209912000Y-74936440D01*
X210712000Y-74936440D01*
X210947317Y-74892162D01*
X211050646Y-74825671D01*
X211052302Y-74827327D01*
X211285691Y-74924000D01*
X211526250Y-74924000D01*
X211685000Y-74765250D01*
X211685000Y-74041000D01*
X211939000Y-74041000D01*
X211939000Y-74765250D01*
X212097750Y-74924000D01*
X212338309Y-74924000D01*
X212571698Y-74827327D01*
X212750327Y-74648699D01*
X212847000Y-74415310D01*
X212847000Y-74199750D01*
X213849000Y-74199750D01*
X213849000Y-74415310D01*
X213945673Y-74648699D01*
X214124302Y-74827327D01*
X214357691Y-74924000D01*
X214598250Y-74924000D01*
X214757000Y-74765250D01*
X214757000Y-74041000D01*
X214007750Y-74041000D01*
X213849000Y-74199750D01*
X212847000Y-74199750D01*
X212688250Y-74041000D01*
X211939000Y-74041000D01*
X211685000Y-74041000D01*
X211665000Y-74041000D01*
X211665000Y-73787000D01*
X211685000Y-73787000D01*
X211685000Y-73062750D01*
X211939000Y-73062750D01*
X211939000Y-73787000D01*
X212688250Y-73787000D01*
X212847000Y-73628250D01*
X212847000Y-73412690D01*
X213849000Y-73412690D01*
X213849000Y-73628250D01*
X214007750Y-73787000D01*
X214757000Y-73787000D01*
X214757000Y-73062750D01*
X214598250Y-72904000D01*
X214357691Y-72904000D01*
X214124302Y-73000673D01*
X213945673Y-73179301D01*
X213849000Y-73412690D01*
X212847000Y-73412690D01*
X212750327Y-73179301D01*
X212571698Y-73000673D01*
X212338309Y-72904000D01*
X212097750Y-72904000D01*
X211939000Y-73062750D01*
X211685000Y-73062750D01*
X211526250Y-72904000D01*
X211285691Y-72904000D01*
X211201000Y-72939080D01*
X211201000Y-72898000D01*
X211133329Y-72557794D01*
X210940618Y-72269382D01*
X210467863Y-71796627D01*
X210379507Y-71582788D01*
X210104659Y-71307460D01*
X209745370Y-71158270D01*
X209356337Y-71157931D01*
X208996788Y-71306493D01*
X208788000Y-71514917D01*
X208788000Y-68834000D01*
X210375760Y-68834000D01*
X210375760Y-70866000D01*
X210420038Y-71101317D01*
X210559110Y-71317441D01*
X210771310Y-71462431D01*
X211023200Y-71513440D01*
X214680800Y-71513440D01*
X214916117Y-71469162D01*
X215132241Y-71330090D01*
X215277231Y-71117890D01*
X215328240Y-70866000D01*
X215328240Y-68834000D01*
X215283962Y-68598683D01*
X215144890Y-68382559D01*
X214932690Y-68237569D01*
X214680800Y-68186560D01*
X211023200Y-68186560D01*
X210787883Y-68230838D01*
X210571759Y-68369910D01*
X210426769Y-68582110D01*
X210375760Y-68834000D01*
X208788000Y-68834000D01*
X208788000Y-67625630D01*
X209103631Y-67310000D01*
X212598000Y-67310000D01*
X212889605Y-67251996D01*
X213136815Y-67086815D01*
X213390815Y-66832816D01*
X213555996Y-66585605D01*
X213571021Y-66510069D01*
X213614000Y-66294000D01*
X213614000Y-64853140D01*
X213811441Y-64726090D01*
X213956431Y-64513890D01*
X213995000Y-64323431D01*
X213995000Y-64388310D01*
X214091673Y-64621699D01*
X214270302Y-64800327D01*
X214503691Y-64897000D01*
X214852250Y-64897000D01*
X215011000Y-64738250D01*
X215011000Y-63373000D01*
X215265000Y-63373000D01*
X215265000Y-64738250D01*
X215423750Y-64897000D01*
X215772309Y-64897000D01*
X216005698Y-64800327D01*
X216184327Y-64621699D01*
X216281000Y-64388310D01*
X216281000Y-63531750D01*
X216122250Y-63373000D01*
X215265000Y-63373000D01*
X215011000Y-63373000D01*
X214991000Y-63373000D01*
X214991000Y-63119000D01*
X215011000Y-63119000D01*
X215011000Y-61753750D01*
X215265000Y-61753750D01*
X215265000Y-63119000D01*
X216122250Y-63119000D01*
X216281000Y-62960250D01*
X216281000Y-62103690D01*
X216184327Y-61870301D01*
X216078808Y-61764782D01*
X218973141Y-61764782D01*
X219200808Y-62315780D01*
X219622003Y-62737710D01*
X219622931Y-62738095D01*
X219202290Y-63158003D01*
X218973661Y-63708602D01*
X218973141Y-64304782D01*
X219200808Y-64855780D01*
X219622003Y-65277710D01*
X219622931Y-65278095D01*
X219202290Y-65698003D01*
X218973661Y-66248602D01*
X218973141Y-66844782D01*
X219200808Y-67395780D01*
X219622003Y-67817710D01*
X219622931Y-67818095D01*
X219202290Y-68238003D01*
X218973661Y-68788602D01*
X218973141Y-69384782D01*
X219200808Y-69935780D01*
X219622003Y-70357710D01*
X219622931Y-70358095D01*
X219202290Y-70778003D01*
X218973661Y-71328602D01*
X218973141Y-71924782D01*
X219200808Y-72475780D01*
X219622003Y-72897710D01*
X219622931Y-72898095D01*
X219202290Y-73318003D01*
X218973661Y-73868602D01*
X218973141Y-74464782D01*
X219200808Y-75015780D01*
X219622003Y-75437710D01*
X219622931Y-75438095D01*
X219202290Y-75858003D01*
X218973661Y-76408602D01*
X218973141Y-77004782D01*
X219200808Y-77555780D01*
X219622003Y-77977710D01*
X219622931Y-77978095D01*
X219202290Y-78398003D01*
X218973661Y-78948602D01*
X218973141Y-79544782D01*
X219200808Y-80095780D01*
X219622003Y-80517710D01*
X219622931Y-80518095D01*
X219202290Y-80938003D01*
X218973661Y-81488602D01*
X218973141Y-82084782D01*
X219200808Y-82635780D01*
X219622003Y-83057710D01*
X219622931Y-83058095D01*
X219202290Y-83478003D01*
X218973661Y-84028602D01*
X218973141Y-84624782D01*
X219200808Y-85175780D01*
X219622003Y-85597710D01*
X219622931Y-85598095D01*
X219202290Y-86018003D01*
X218973661Y-86568602D01*
X218973141Y-87164782D01*
X219200808Y-87715780D01*
X219622003Y-88137710D01*
X219622931Y-88138095D01*
X219202290Y-88558003D01*
X218973661Y-89108602D01*
X218973141Y-89704782D01*
X219200808Y-90255780D01*
X219622003Y-90677710D01*
X219662537Y-90694541D01*
X219597800Y-90894195D01*
X220472000Y-91768395D01*
X221346200Y-90894195D01*
X221281601Y-90694967D01*
X221319780Y-90679192D01*
X221741710Y-90257997D01*
X221970339Y-89707398D01*
X221970859Y-89111218D01*
X221743192Y-88560220D01*
X221321997Y-88138290D01*
X221321069Y-88137905D01*
X221741710Y-87717997D01*
X221970339Y-87167398D01*
X221970859Y-86571218D01*
X221743192Y-86020220D01*
X221321997Y-85598290D01*
X221321069Y-85597905D01*
X221741710Y-85177997D01*
X221970339Y-84627398D01*
X221970859Y-84031218D01*
X221743192Y-83480220D01*
X221321997Y-83058290D01*
X221321069Y-83057905D01*
X221741710Y-82637997D01*
X221970339Y-82087398D01*
X221970859Y-81491218D01*
X221743192Y-80940220D01*
X221321997Y-80518290D01*
X221321069Y-80517905D01*
X221741710Y-80097997D01*
X221970339Y-79547398D01*
X221970859Y-78951218D01*
X221743192Y-78400220D01*
X221321997Y-77978290D01*
X221321069Y-77977905D01*
X221741710Y-77557997D01*
X221970339Y-77007398D01*
X221970859Y-76411218D01*
X221743192Y-75860220D01*
X221321997Y-75438290D01*
X221321069Y-75437905D01*
X221741710Y-75017997D01*
X221970339Y-74467398D01*
X221970859Y-73871218D01*
X221743192Y-73320220D01*
X221321997Y-72898290D01*
X221321069Y-72897905D01*
X221741710Y-72477997D01*
X221970339Y-71927398D01*
X221970859Y-71331218D01*
X221743192Y-70780220D01*
X221321997Y-70358290D01*
X221321069Y-70357905D01*
X221741710Y-69937997D01*
X221970339Y-69387398D01*
X221970859Y-68791218D01*
X221743192Y-68240220D01*
X221321997Y-67818290D01*
X221321069Y-67817905D01*
X221741710Y-67397997D01*
X221970339Y-66847398D01*
X221970859Y-66251218D01*
X221743192Y-65700220D01*
X221321997Y-65278290D01*
X221321069Y-65277905D01*
X221741710Y-64857997D01*
X221970339Y-64307398D01*
X221970859Y-63711218D01*
X221743192Y-63160220D01*
X221321997Y-62738290D01*
X221321069Y-62737905D01*
X221741710Y-62317997D01*
X221742095Y-62317069D01*
X222162003Y-62737710D01*
X222712602Y-62966339D01*
X223308782Y-62966859D01*
X223859780Y-62739192D01*
X224281710Y-62317997D01*
X224282095Y-62317069D01*
X224702003Y-62737710D01*
X225252602Y-62966339D01*
X225848782Y-62966859D01*
X226399780Y-62739192D01*
X226617546Y-62521805D01*
X227217800Y-62521805D01*
X227299741Y-62774516D01*
X227860030Y-62978248D01*
X228455635Y-62952058D01*
X228884259Y-62774516D01*
X228966200Y-62521805D01*
X228092000Y-61647605D01*
X227217800Y-62521805D01*
X226617546Y-62521805D01*
X226821710Y-62317997D01*
X226838541Y-62277463D01*
X227038195Y-62342200D01*
X227912395Y-61468000D01*
X227038195Y-60593800D01*
X226838967Y-60658399D01*
X226823192Y-60620220D01*
X226617526Y-60414195D01*
X227217800Y-60414195D01*
X228092000Y-61288395D01*
X228966200Y-60414195D01*
X228884259Y-60161484D01*
X228323970Y-59957752D01*
X227728365Y-59983942D01*
X227299741Y-60161484D01*
X227217800Y-60414195D01*
X226617526Y-60414195D01*
X226401997Y-60198290D01*
X225851398Y-59969661D01*
X225255218Y-59969141D01*
X224704220Y-60196808D01*
X224282290Y-60618003D01*
X224281905Y-60618931D01*
X223861997Y-60198290D01*
X223311398Y-59969661D01*
X222715218Y-59969141D01*
X222164220Y-60196808D01*
X221742290Y-60618003D01*
X221741905Y-60618931D01*
X221321997Y-60198290D01*
X220771398Y-59969661D01*
X220175218Y-59969141D01*
X219624220Y-60196808D01*
X219202290Y-60618003D01*
X218973661Y-61168602D01*
X218973141Y-61764782D01*
X216078808Y-61764782D01*
X216005698Y-61691673D01*
X215772309Y-61595000D01*
X215423750Y-61595000D01*
X215265000Y-61753750D01*
X215011000Y-61753750D01*
X214852250Y-61595000D01*
X214503691Y-61595000D01*
X214270302Y-61691673D01*
X214091673Y-61870301D01*
X213995000Y-62103690D01*
X213995000Y-62163887D01*
X213963162Y-61994683D01*
X213824090Y-61778559D01*
X213611890Y-61633569D01*
X213360000Y-61582560D01*
X212344000Y-61582560D01*
X212108683Y-61626838D01*
X211892559Y-61765910D01*
X211747569Y-61978110D01*
X211709457Y-62166314D01*
X211677162Y-61994683D01*
X211538090Y-61778559D01*
X211530122Y-61773114D01*
X212336796Y-60966440D01*
X212502000Y-60966440D01*
X212737317Y-60922162D01*
X212840646Y-60855671D01*
X212842302Y-60857327D01*
X213075691Y-60954000D01*
X213316250Y-60954000D01*
X213475000Y-60795250D01*
X213475000Y-60071000D01*
X213729000Y-60071000D01*
X213729000Y-60795250D01*
X213887750Y-60954000D01*
X214128309Y-60954000D01*
X214361698Y-60857327D01*
X214540327Y-60678699D01*
X214637000Y-60445310D01*
X214637000Y-60229750D01*
X214478250Y-60071000D01*
X213729000Y-60071000D01*
X213475000Y-60071000D01*
X213455000Y-60071000D01*
X213455000Y-59817000D01*
X213475000Y-59817000D01*
X213475000Y-59092750D01*
X213729000Y-59092750D01*
X213729000Y-59817000D01*
X214478250Y-59817000D01*
X214637000Y-59658250D01*
X214637000Y-59442690D01*
X214540327Y-59209301D01*
X214361698Y-59030673D01*
X214128309Y-58934000D01*
X213887750Y-58934000D01*
X213729000Y-59092750D01*
X213475000Y-59092750D01*
X213316250Y-58934000D01*
X213075691Y-58934000D01*
X212991000Y-58969080D01*
X212991000Y-57531000D01*
X241439764Y-57531000D01*
X246177394Y-62268630D01*
X246084030Y-62738000D01*
X246193263Y-63287151D01*
X246504332Y-63752698D01*
X246886418Y-64008000D01*
X246504332Y-64263302D01*
X246193263Y-64728849D01*
X246084030Y-65278000D01*
X246193263Y-65827151D01*
X246504332Y-66292698D01*
X246886418Y-66548000D01*
X246504332Y-66803302D01*
X246193263Y-67268849D01*
X246084030Y-67818000D01*
X246193263Y-68367151D01*
X246504332Y-68832698D01*
X246882151Y-69085149D01*
X246449500Y-69433104D01*
X246179633Y-69926181D01*
X246162096Y-70008961D01*
X246284085Y-70231000D01*
X247777000Y-70231000D01*
X247777000Y-70211000D01*
X248031000Y-70211000D01*
X248031000Y-70231000D01*
X248051000Y-70231000D01*
X248051000Y-70485000D01*
X248031000Y-70485000D01*
X248031000Y-72771000D01*
X248051000Y-72771000D01*
X248051000Y-73025000D01*
X248031000Y-73025000D01*
X248031000Y-73045000D01*
X247777000Y-73045000D01*
X247777000Y-73025000D01*
X246284085Y-73025000D01*
X246162096Y-73247039D01*
X246179633Y-73329819D01*
X246449500Y-73822896D01*
X246882151Y-74170851D01*
X246504332Y-74423302D01*
X246387594Y-74598013D01*
X246293794Y-74616671D01*
X246089629Y-74753090D01*
X246005382Y-74809382D01*
X244735382Y-76079382D01*
X244542671Y-76367794D01*
X244475000Y-76708000D01*
X244475000Y-83631369D01*
X241961109Y-81117479D01*
X241994737Y-81067151D01*
X242103970Y-80518000D01*
X241994737Y-79968849D01*
X241683668Y-79503302D01*
X241301582Y-79248000D01*
X241683668Y-78992698D01*
X241994737Y-78527151D01*
X242103970Y-77978000D01*
X241994737Y-77428849D01*
X241683668Y-76963302D01*
X241301582Y-76708000D01*
X241683668Y-76452698D01*
X241994737Y-75987151D01*
X242103970Y-75438000D01*
X241994737Y-74888849D01*
X241683668Y-74423302D01*
X241305849Y-74170851D01*
X241738500Y-73822896D01*
X242008367Y-73329819D01*
X242025904Y-73247039D01*
X241903915Y-73025000D01*
X240411000Y-73025000D01*
X240411000Y-73045000D01*
X240157000Y-73045000D01*
X240157000Y-73025000D01*
X238664085Y-73025000D01*
X238542096Y-73247039D01*
X238559633Y-73329819D01*
X238829500Y-73822896D01*
X239262151Y-74170851D01*
X238884332Y-74423302D01*
X238573263Y-74888849D01*
X238464030Y-75438000D01*
X238557394Y-75907370D01*
X238379000Y-76085764D01*
X238379000Y-70980236D01*
X238563094Y-70796142D01*
X238829500Y-71282896D01*
X239258607Y-71628000D01*
X238829500Y-71973104D01*
X238559633Y-72466181D01*
X238542096Y-72548961D01*
X238664085Y-72771000D01*
X240157000Y-72771000D01*
X240157000Y-70485000D01*
X240411000Y-70485000D01*
X240411000Y-72771000D01*
X241903915Y-72771000D01*
X242025904Y-72548961D01*
X242008367Y-72466181D01*
X241738500Y-71973104D01*
X241309393Y-71628000D01*
X241738500Y-71282896D01*
X242008367Y-70789819D01*
X242025904Y-70707039D01*
X246162096Y-70707039D01*
X246179633Y-70789819D01*
X246449500Y-71282896D01*
X246878607Y-71628000D01*
X246449500Y-71973104D01*
X246179633Y-72466181D01*
X246162096Y-72548961D01*
X246284085Y-72771000D01*
X247777000Y-72771000D01*
X247777000Y-70485000D01*
X246284085Y-70485000D01*
X246162096Y-70707039D01*
X242025904Y-70707039D01*
X241903915Y-70485000D01*
X240411000Y-70485000D01*
X240157000Y-70485000D01*
X240137000Y-70485000D01*
X240137000Y-70231000D01*
X240157000Y-70231000D01*
X240157000Y-70211000D01*
X240411000Y-70211000D01*
X240411000Y-70231000D01*
X241903915Y-70231000D01*
X242025904Y-70008961D01*
X242008367Y-69926181D01*
X241738500Y-69433104D01*
X241305849Y-69085149D01*
X241683668Y-68832698D01*
X241994737Y-68367151D01*
X242103970Y-67818000D01*
X241994737Y-67268849D01*
X241683668Y-66803302D01*
X241301582Y-66548000D01*
X241683668Y-66292698D01*
X241994737Y-65827151D01*
X242103970Y-65278000D01*
X241994737Y-64728849D01*
X241683668Y-64263302D01*
X241301582Y-64008000D01*
X241683668Y-63752698D01*
X241994737Y-63287151D01*
X242103970Y-62738000D01*
X241994737Y-62188849D01*
X241683668Y-61723302D01*
X241218121Y-61412233D01*
X240668970Y-61303000D01*
X239899030Y-61303000D01*
X239349879Y-61412233D01*
X238884332Y-61723302D01*
X238573263Y-62188849D01*
X238464030Y-62738000D01*
X238573263Y-63287151D01*
X238606891Y-63337479D01*
X237459185Y-64485185D01*
X237294004Y-64732395D01*
X237236000Y-65024000D01*
X237236000Y-66232369D01*
X237210854Y-66257516D01*
X237210859Y-66251218D01*
X236983192Y-65700220D01*
X236561997Y-65278290D01*
X236561069Y-65277905D01*
X236981710Y-64857997D01*
X237210339Y-64307398D01*
X237210859Y-63711218D01*
X236983192Y-63160220D01*
X236561997Y-62738290D01*
X236561069Y-62737905D01*
X236981710Y-62317997D01*
X237210339Y-61767398D01*
X237210859Y-61171218D01*
X236983192Y-60620220D01*
X236561997Y-60198290D01*
X236011398Y-59969661D01*
X235415218Y-59969141D01*
X234864220Y-60196808D01*
X234442290Y-60618003D01*
X234441905Y-60618931D01*
X234021997Y-60198290D01*
X233471398Y-59969661D01*
X232875218Y-59969141D01*
X232324220Y-60196808D01*
X231902290Y-60618003D01*
X231901905Y-60618931D01*
X231481997Y-60198290D01*
X230931398Y-59969661D01*
X230335218Y-59969141D01*
X229784220Y-60196808D01*
X229362290Y-60618003D01*
X229345459Y-60658537D01*
X229145805Y-60593800D01*
X228271605Y-61468000D01*
X229145805Y-62342200D01*
X229345033Y-62277601D01*
X229360808Y-62315780D01*
X229782003Y-62737710D01*
X230332602Y-62966339D01*
X230928782Y-62966859D01*
X231479780Y-62739192D01*
X231901710Y-62317997D01*
X231902095Y-62317069D01*
X232322003Y-62737710D01*
X232872602Y-62966339D01*
X233468782Y-62966859D01*
X234019780Y-62739192D01*
X234441710Y-62317997D01*
X234442095Y-62317069D01*
X234862003Y-62737710D01*
X234862931Y-62738095D01*
X234442290Y-63158003D01*
X234213661Y-63708602D01*
X234213141Y-64304782D01*
X234440808Y-64855780D01*
X234862003Y-65277710D01*
X234862931Y-65278095D01*
X234442290Y-65698003D01*
X234213661Y-66248602D01*
X234213141Y-66844782D01*
X234440808Y-67395780D01*
X234862003Y-67817710D01*
X234862931Y-67818095D01*
X234442290Y-68238003D01*
X234213661Y-68788602D01*
X234213141Y-69384782D01*
X234440808Y-69935780D01*
X234862003Y-70357710D01*
X234862931Y-70358095D01*
X234442290Y-70778003D01*
X234213661Y-71328602D01*
X234213141Y-71924782D01*
X234440808Y-72475780D01*
X234862003Y-72897710D01*
X234862931Y-72898095D01*
X234442290Y-73318003D01*
X234213661Y-73868602D01*
X234213141Y-74464782D01*
X234440808Y-75015780D01*
X234862003Y-75437710D01*
X234862931Y-75438095D01*
X234442290Y-75858003D01*
X234213661Y-76408602D01*
X234213141Y-77004782D01*
X234440808Y-77555780D01*
X234862003Y-77977710D01*
X234862931Y-77978095D01*
X234442290Y-78398003D01*
X234213661Y-78948602D01*
X234213141Y-79544782D01*
X234440808Y-80095780D01*
X234862003Y-80517710D01*
X234862931Y-80518095D01*
X234442290Y-80938003D01*
X234213661Y-81488602D01*
X234213141Y-82084782D01*
X234440808Y-82635780D01*
X234862003Y-83057710D01*
X234862931Y-83058095D01*
X234442290Y-83478003D01*
X234213661Y-84028602D01*
X234213141Y-84624782D01*
X234440808Y-85175780D01*
X234862003Y-85597710D01*
X234862931Y-85598095D01*
X234442290Y-86018003D01*
X234213661Y-86568602D01*
X234213141Y-87164782D01*
X234440808Y-87715780D01*
X234862003Y-88137710D01*
X234862931Y-88138095D01*
X234442290Y-88558003D01*
X234213661Y-89108602D01*
X234213141Y-89704782D01*
X234440808Y-90255780D01*
X234862003Y-90677710D01*
X234862931Y-90678095D01*
X234442290Y-91098003D01*
X234213661Y-91648602D01*
X234213141Y-92244782D01*
X234440808Y-92795780D01*
X234862003Y-93217710D01*
X234902537Y-93234541D01*
X234837800Y-93434195D01*
X235712000Y-94308395D01*
X236586200Y-93434195D01*
X236521601Y-93234967D01*
X236559780Y-93219192D01*
X236981710Y-92797997D01*
X237210339Y-92247398D01*
X237210859Y-91651218D01*
X236983192Y-91100220D01*
X236561997Y-90678290D01*
X236561069Y-90677905D01*
X236981710Y-90257997D01*
X237210339Y-89707398D01*
X237210859Y-89111218D01*
X236983192Y-88560220D01*
X236561997Y-88138290D01*
X236561069Y-88137905D01*
X236794644Y-87904737D01*
X236797586Y-87909141D01*
X236861382Y-88004618D01*
X238366560Y-89509796D01*
X238366560Y-91186000D01*
X238410838Y-91421317D01*
X238549910Y-91637441D01*
X238762110Y-91782431D01*
X239014000Y-91833440D01*
X241046000Y-91833440D01*
X241281317Y-91789162D01*
X241497441Y-91650090D01*
X241599198Y-91501163D01*
X241938190Y-91727670D01*
X242570000Y-91853345D01*
X243201810Y-91727670D01*
X243332000Y-91640680D01*
X243332000Y-93156369D01*
X241238370Y-95250000D01*
X237029519Y-95250000D01*
X237222248Y-94719970D01*
X237196058Y-94124365D01*
X237018516Y-93695741D01*
X236765805Y-93613800D01*
X235891605Y-94488000D01*
X235905748Y-94502143D01*
X235726143Y-94681748D01*
X235712000Y-94667605D01*
X235697858Y-94681748D01*
X235518253Y-94502143D01*
X235532395Y-94488000D01*
X234658195Y-93613800D01*
X234405484Y-93695741D01*
X234201752Y-94256030D01*
X234227942Y-94851635D01*
X234392950Y-95250000D01*
X228407631Y-95250000D01*
X227106815Y-93949185D01*
X227106814Y-93949184D01*
X226859605Y-93784004D01*
X226568000Y-93726000D01*
X221778635Y-93726000D01*
X221743192Y-93640220D01*
X221321997Y-93218290D01*
X221281463Y-93201459D01*
X221346200Y-93001805D01*
X220472000Y-92127605D01*
X219597800Y-93001805D01*
X219662399Y-93201033D01*
X219624220Y-93216808D01*
X219316061Y-93524430D01*
X217507661Y-91716030D01*
X218961752Y-91716030D01*
X218987942Y-92311635D01*
X219165484Y-92740259D01*
X219418195Y-92822200D01*
X220292395Y-91948000D01*
X220651605Y-91948000D01*
X221525805Y-92822200D01*
X221778516Y-92740259D01*
X221982248Y-92179970D01*
X221956058Y-91584365D01*
X221778516Y-91155741D01*
X221525805Y-91073800D01*
X220651605Y-91948000D01*
X220292395Y-91948000D01*
X219418195Y-91073800D01*
X219165484Y-91155741D01*
X218961752Y-91716030D01*
X217507661Y-91716030D01*
X217424000Y-91632370D01*
X217424000Y-91132680D01*
X217829433Y-90861778D01*
X218187325Y-90326155D01*
X218313000Y-89694345D01*
X218313000Y-89629655D01*
X218187325Y-88997845D01*
X217829433Y-88462222D01*
X217424000Y-88191320D01*
X217424000Y-74325740D01*
X217431440Y-74289000D01*
X217431440Y-73539000D01*
X217387162Y-73303683D01*
X217248090Y-73087559D01*
X217035890Y-72942569D01*
X216784000Y-72891560D01*
X215984000Y-72891560D01*
X215748683Y-72935838D01*
X215645354Y-73002329D01*
X215643698Y-73000673D01*
X215410309Y-72904000D01*
X215169750Y-72904000D01*
X215011000Y-73062750D01*
X215011000Y-73787000D01*
X215031000Y-73787000D01*
X215031000Y-74041000D01*
X215011000Y-74041000D01*
X215011000Y-74765250D01*
X215169750Y-74924000D01*
X215410309Y-74924000D01*
X215643698Y-74827327D01*
X215645068Y-74825957D01*
X215732110Y-74885431D01*
X215900000Y-74919430D01*
X215900000Y-76708000D01*
X214907870Y-76708000D01*
X214907870Y-76220320D01*
X214863592Y-75985003D01*
X214724520Y-75768879D01*
X214512320Y-75623889D01*
X214260430Y-75572880D01*
X212459570Y-75572880D01*
X212224253Y-75617158D01*
X212008129Y-75756230D01*
X211863139Y-75968430D01*
X211812130Y-76220320D01*
X211812130Y-78719680D01*
X211856408Y-78954997D01*
X211995480Y-79171121D01*
X212207680Y-79316111D01*
X212459570Y-79367120D01*
X214260430Y-79367120D01*
X214495747Y-79322842D01*
X214711871Y-79183770D01*
X214856861Y-78971570D01*
X214907870Y-78719680D01*
X214907870Y-78232000D01*
X215900000Y-78232000D01*
X215900000Y-83948975D01*
X215873698Y-83922673D01*
X215640309Y-83826000D01*
X215399750Y-83826000D01*
X215241000Y-83984750D01*
X215241000Y-84709000D01*
X215261000Y-84709000D01*
X215261000Y-84963000D01*
X215241000Y-84963000D01*
X215241000Y-85687250D01*
X215399750Y-85846000D01*
X215640309Y-85846000D01*
X215873698Y-85749327D01*
X215900000Y-85723025D01*
X215900000Y-88191320D01*
X215494567Y-88462222D01*
X215385565Y-88625354D01*
X214986818Y-88255615D01*
X214504944Y-88056025D01*
X214249000Y-88175164D01*
X214249000Y-89535000D01*
X214269000Y-89535000D01*
X214269000Y-89789000D01*
X214249000Y-89789000D01*
X214249000Y-91148836D01*
X214504944Y-91267975D01*
X214986818Y-91068385D01*
X215385565Y-90698646D01*
X215494567Y-90861778D01*
X215900000Y-91132680D01*
X215900000Y-91948000D01*
X215958004Y-92239605D01*
X216123185Y-92486815D01*
X218663184Y-95026815D01*
X218910395Y-95191996D01*
X219162084Y-95242060D01*
X219200808Y-95335780D01*
X219622003Y-95757710D01*
X220172602Y-95986339D01*
X220768782Y-95986859D01*
X221319780Y-95759192D01*
X221741710Y-95337997D01*
X221778250Y-95250000D01*
X226252370Y-95250000D01*
X227553184Y-96550815D01*
X227800395Y-96715996D01*
X228092000Y-96774000D01*
X241554000Y-96774000D01*
X241845605Y-96715996D01*
X242092815Y-96550815D01*
X244632815Y-94010816D01*
X244797996Y-93763605D01*
X244811495Y-93695741D01*
X244856000Y-93472000D01*
X244856000Y-91569203D01*
X244899910Y-91637441D01*
X245112110Y-91782431D01*
X245364000Y-91833440D01*
X247396000Y-91833440D01*
X247631317Y-91789162D01*
X247847441Y-91650090D01*
X247949198Y-91501163D01*
X248288190Y-91727670D01*
X248920000Y-91853345D01*
X249551810Y-91727670D01*
X250087433Y-91369778D01*
X250445325Y-90834155D01*
X250571000Y-90202345D01*
X250571000Y-90137655D01*
X250511037Y-89836199D01*
X250818618Y-89528618D01*
X250899212Y-89408000D01*
X251011329Y-89240206D01*
X251079000Y-88900000D01*
X251079000Y-69596000D01*
X251011329Y-69255794D01*
X250818618Y-68967382D01*
X249714889Y-67863653D01*
X249723970Y-67818000D01*
X249614737Y-67268849D01*
X249303668Y-66803302D01*
X248921582Y-66548000D01*
X249303668Y-66292698D01*
X249614737Y-65827151D01*
X249723970Y-65278000D01*
X249614737Y-64728849D01*
X249303668Y-64263302D01*
X248921582Y-64008000D01*
X249303668Y-63752698D01*
X249614737Y-63287151D01*
X249723970Y-62738000D01*
X249614737Y-62188849D01*
X249303668Y-61723302D01*
X248838121Y-61412233D01*
X248288970Y-61303000D01*
X247726236Y-61303000D01*
X242436618Y-56013382D01*
X242148206Y-55820671D01*
X241808000Y-55753000D01*
X205712270Y-55753000D01*
X205672090Y-55690559D01*
X205501500Y-55574000D01*
X251258000Y-55574000D01*
X251258000Y-96826000D01*
X198830000Y-96826000D01*
X198830000Y-89543120D01*
X201573165Y-89543120D01*
X201782353Y-89903969D01*
X202719650Y-90281504D01*
X203730077Y-90271613D01*
X204617647Y-89903969D01*
X204826835Y-89543120D01*
X203200000Y-87916285D01*
X201573165Y-89543120D01*
X198830000Y-89543120D01*
X198830000Y-87256330D01*
X200655176Y-87256330D01*
X200665067Y-88266757D01*
X201032711Y-89154327D01*
X201393560Y-89363515D01*
X203020395Y-87736680D01*
X203379605Y-87736680D01*
X205006440Y-89363515D01*
X205367289Y-89154327D01*
X205572038Y-88646000D01*
X209918560Y-88646000D01*
X209918560Y-90678000D01*
X209962838Y-90913317D01*
X210101910Y-91129441D01*
X210314110Y-91274431D01*
X210566000Y-91325440D01*
X212598000Y-91325440D01*
X212833317Y-91281162D01*
X213049441Y-91142090D01*
X213160840Y-90979052D01*
X213257182Y-91068385D01*
X213739056Y-91267975D01*
X213995000Y-91148836D01*
X213995000Y-89789000D01*
X213975000Y-89789000D01*
X213975000Y-89535000D01*
X213995000Y-89535000D01*
X213995000Y-88175164D01*
X213739056Y-88056025D01*
X213257182Y-88255615D01*
X213159602Y-88346097D01*
X213062090Y-88194559D01*
X212849890Y-88049569D01*
X212598000Y-87998560D01*
X210566000Y-87998560D01*
X210330683Y-88042838D01*
X210114559Y-88181910D01*
X209969569Y-88394110D01*
X209918560Y-88646000D01*
X205572038Y-88646000D01*
X205744824Y-88217030D01*
X205734933Y-87206603D01*
X205460217Y-86543380D01*
X206272165Y-86543380D01*
X206481353Y-86904229D01*
X207418650Y-87281764D01*
X208429077Y-87271873D01*
X209316647Y-86904229D01*
X209525835Y-86543380D01*
X207899000Y-84916545D01*
X206272165Y-86543380D01*
X205460217Y-86543380D01*
X205367289Y-86319033D01*
X205006440Y-86109845D01*
X203379605Y-87736680D01*
X203020395Y-87736680D01*
X201393560Y-86109845D01*
X201032711Y-86319033D01*
X200655176Y-87256330D01*
X198830000Y-87256330D01*
X198830000Y-85930240D01*
X201573165Y-85930240D01*
X203200000Y-87557075D01*
X204826835Y-85930240D01*
X204617647Y-85569391D01*
X203680350Y-85191856D01*
X202669923Y-85201747D01*
X201782353Y-85569391D01*
X201573165Y-85930240D01*
X198830000Y-85930240D01*
X198830000Y-82240221D01*
X200659560Y-82240221D01*
X200822735Y-82635134D01*
X200809860Y-82699860D01*
X200867864Y-82991465D01*
X201033045Y-83238675D01*
X201263805Y-83392864D01*
X201759327Y-83889252D01*
X202692546Y-84276759D01*
X203703021Y-84277640D01*
X203753965Y-84256590D01*
X205354176Y-84256590D01*
X205364067Y-85267017D01*
X205731711Y-86154587D01*
X206092560Y-86363775D01*
X207719395Y-84736940D01*
X208078605Y-84736940D01*
X209705440Y-86363775D01*
X210066289Y-86154587D01*
X210443824Y-85217290D01*
X210433933Y-84206863D01*
X210066289Y-83319293D01*
X209705440Y-83110105D01*
X208078605Y-84736940D01*
X207719395Y-84736940D01*
X206092560Y-83110105D01*
X205731711Y-83319293D01*
X205354176Y-84256590D01*
X203753965Y-84256590D01*
X204636915Y-83891763D01*
X205352052Y-83177873D01*
X205454770Y-82930500D01*
X206272165Y-82930500D01*
X207899000Y-84557335D01*
X209525835Y-82930500D01*
X209316647Y-82569651D01*
X208379350Y-82192116D01*
X207368923Y-82202007D01*
X206481353Y-82569651D01*
X206272165Y-82930500D01*
X205454770Y-82930500D01*
X205739559Y-82244654D01*
X205740440Y-81234179D01*
X205459815Y-80555015D01*
X206532816Y-79482015D01*
X206689179Y-79248000D01*
X206697996Y-79234805D01*
X206756000Y-78943200D01*
X206756000Y-73914000D01*
X206697996Y-73622395D01*
X206532815Y-73375185D01*
X206057835Y-72900205D01*
X206044897Y-72891560D01*
X205810625Y-72735024D01*
X205519020Y-72677020D01*
X205255870Y-72677020D01*
X205255870Y-72189340D01*
X205211592Y-71954023D01*
X205072520Y-71737899D01*
X204860320Y-71592909D01*
X204608430Y-71541900D01*
X204470000Y-71541900D01*
X204470000Y-70952100D01*
X204608430Y-70952100D01*
X204843747Y-70907822D01*
X205059871Y-70768750D01*
X205204861Y-70556550D01*
X205255870Y-70304660D01*
X205255870Y-67805300D01*
X205211592Y-67569983D01*
X205072520Y-67353859D01*
X204860320Y-67208869D01*
X204608430Y-67157860D01*
X202807570Y-67157860D01*
X202572253Y-67202138D01*
X202356129Y-67341210D01*
X202211139Y-67553410D01*
X202160130Y-67805300D01*
X202160130Y-70304660D01*
X202204408Y-70539977D01*
X202343480Y-70756101D01*
X202555680Y-70901091D01*
X202807570Y-70952100D01*
X202946000Y-70952100D01*
X202946000Y-71541900D01*
X202807570Y-71541900D01*
X202572253Y-71586178D01*
X202356129Y-71725250D01*
X202211139Y-71937450D01*
X202160130Y-72189340D01*
X202160130Y-74688700D01*
X202204408Y-74924017D01*
X202343480Y-75140141D01*
X202555680Y-75285131D01*
X202807570Y-75336140D01*
X204608430Y-75336140D01*
X204843747Y-75291862D01*
X205059871Y-75152790D01*
X205204861Y-74940590D01*
X205232000Y-74806574D01*
X205232000Y-76033397D01*
X205146757Y-75827602D01*
X204968129Y-75648973D01*
X204734740Y-75552300D01*
X203993750Y-75552300D01*
X203835000Y-75711050D01*
X203835000Y-77309980D01*
X203855000Y-77309980D01*
X203855000Y-77563980D01*
X203835000Y-77563980D01*
X203835000Y-77583980D01*
X203581000Y-77583980D01*
X203581000Y-77563980D01*
X202331320Y-77563980D01*
X202172570Y-77722730D01*
X202172570Y-78812969D01*
X202269243Y-79046358D01*
X202447871Y-79224987D01*
X202538156Y-79262384D01*
X201763085Y-79582637D01*
X201047948Y-80296527D01*
X200660441Y-81229746D01*
X200659560Y-82240221D01*
X198830000Y-82240221D01*
X198830000Y-76060991D01*
X202172570Y-76060991D01*
X202172570Y-77151230D01*
X202331320Y-77309980D01*
X203581000Y-77309980D01*
X203581000Y-75711050D01*
X203422250Y-75552300D01*
X202681260Y-75552300D01*
X202447871Y-75648973D01*
X202269243Y-75827602D01*
X202172570Y-76060991D01*
X198830000Y-76060991D01*
X198830000Y-60742000D01*
X201560560Y-60742000D01*
X201560560Y-61742000D01*
X201604838Y-61977317D01*
X201743910Y-62193441D01*
X201956110Y-62338431D01*
X202208000Y-62389440D01*
X202946000Y-62389440D01*
X202946000Y-63159900D01*
X202807570Y-63159900D01*
X202572253Y-63204178D01*
X202356129Y-63343250D01*
X202211139Y-63555450D01*
X202160130Y-63807340D01*
X202160130Y-66306700D01*
X202204408Y-66542017D01*
X202343480Y-66758141D01*
X202555680Y-66903131D01*
X202807570Y-66954140D01*
X204608430Y-66954140D01*
X204843747Y-66909862D01*
X205059871Y-66770790D01*
X205204861Y-66558590D01*
X205255870Y-66306700D01*
X205255870Y-63807340D01*
X205211592Y-63572023D01*
X205072520Y-63355899D01*
X204860320Y-63210909D01*
X204608430Y-63159900D01*
X204470000Y-63159900D01*
X204470000Y-62389440D01*
X205208000Y-62389440D01*
X205443317Y-62345162D01*
X205659441Y-62206090D01*
X205804431Y-61993890D01*
X205855440Y-61742000D01*
X205855440Y-60742000D01*
X205811162Y-60506683D01*
X205672090Y-60290559D01*
X205459890Y-60145569D01*
X205208000Y-60094560D01*
X202208000Y-60094560D01*
X201972683Y-60138838D01*
X201756559Y-60277910D01*
X201611569Y-60490110D01*
X201560560Y-60742000D01*
X198830000Y-60742000D01*
X198830000Y-55574000D01*
X201918040Y-55574000D01*
X201756559Y-55677910D01*
X201756559Y-55677910D01*
G37*
X201756559Y-55677910D02*
X201611569Y-55890110D01*
X201560560Y-56142000D01*
X201560560Y-57142000D01*
X201604838Y-57377317D01*
X201743910Y-57593441D01*
X201956110Y-57738431D01*
X202208000Y-57789440D01*
X205208000Y-57789440D01*
X205443317Y-57745162D01*
X205659441Y-57606090D01*
X205710748Y-57531000D01*
X211213000Y-57531000D01*
X211213000Y-59159879D01*
X211105569Y-59317110D01*
X211054560Y-59569000D01*
X211054560Y-59734204D01*
X209937382Y-60851382D01*
X209744671Y-61139794D01*
X209677000Y-61480000D01*
X209677000Y-61720582D01*
X209606559Y-61765910D01*
X209461569Y-61978110D01*
X209410560Y-62230000D01*
X209410560Y-64262000D01*
X209454838Y-64497317D01*
X209593910Y-64713441D01*
X209677000Y-64770214D01*
X209677000Y-65122945D01*
X209588270Y-65336630D01*
X209587931Y-65725663D01*
X209612862Y-65786000D01*
X208788000Y-65786000D01*
X208496395Y-65844004D01*
X208454188Y-65872206D01*
X208249185Y-66009184D01*
X207487185Y-66771185D01*
X207322004Y-67018395D01*
X207264000Y-67310000D01*
X207264000Y-79248000D01*
X207322004Y-79539605D01*
X207465386Y-79754190D01*
X207487185Y-79786815D01*
X209707145Y-82006776D01*
X209954356Y-82171957D01*
X210245960Y-82229960D01*
X211812130Y-82229960D01*
X211812130Y-82717640D01*
X211856408Y-82952957D01*
X211995480Y-83169081D01*
X212207680Y-83314071D01*
X212459570Y-83365080D01*
X212598000Y-83365080D01*
X212598000Y-84305745D01*
X212566560Y-84461000D01*
X212566560Y-85211000D01*
X212610838Y-85446317D01*
X212749910Y-85662441D01*
X212962110Y-85807431D01*
X213214000Y-85858440D01*
X214014000Y-85858440D01*
X214249317Y-85814162D01*
X214352646Y-85747671D01*
X214354302Y-85749327D01*
X214587691Y-85846000D01*
X214828250Y-85846000D01*
X214987000Y-85687250D01*
X214987000Y-84963000D01*
X214967000Y-84963000D01*
X214967000Y-84709000D01*
X214987000Y-84709000D01*
X214987000Y-83984750D01*
X214828250Y-83826000D01*
X214587691Y-83826000D01*
X214354302Y-83922673D01*
X214352932Y-83924043D01*
X214265890Y-83864569D01*
X214122000Y-83835431D01*
X214122000Y-83365080D01*
X214260430Y-83365080D01*
X214495747Y-83320802D01*
X214711871Y-83181730D01*
X214856861Y-82969530D01*
X214907870Y-82717640D01*
X214907870Y-80218280D01*
X214863592Y-79982963D01*
X214724520Y-79766839D01*
X214512320Y-79621849D01*
X214260430Y-79570840D01*
X212459570Y-79570840D01*
X212224253Y-79615118D01*
X212008129Y-79754190D01*
X211863139Y-79966390D01*
X211812130Y-80218280D01*
X211812130Y-80705960D01*
X210561591Y-80705960D01*
X208788000Y-78932370D01*
X208788000Y-72756837D01*
X208995341Y-72964540D01*
X209210750Y-73053986D01*
X209367650Y-73210886D01*
X209315569Y-73287110D01*
X209264560Y-73539000D01*
X209264560Y-74289000D01*
X209308838Y-74524317D01*
X209447910Y-74740441D01*
X209660110Y-74885431D01*
X209912000Y-74936440D01*
X210712000Y-74936440D01*
X210947317Y-74892162D01*
X211050646Y-74825671D01*
X211052302Y-74827327D01*
X211285691Y-74924000D01*
X211526250Y-74924000D01*
X211685000Y-74765250D01*
X211685000Y-74041000D01*
X211939000Y-74041000D01*
X211939000Y-74765250D01*
X212097750Y-74924000D01*
X212338309Y-74924000D01*
X212571698Y-74827327D01*
X212750327Y-74648699D01*
X212847000Y-74415310D01*
X212847000Y-74199750D01*
X213849000Y-74199750D01*
X213849000Y-74415310D01*
X213945673Y-74648699D01*
X214124302Y-74827327D01*
X214357691Y-74924000D01*
X214598250Y-74924000D01*
X214757000Y-74765250D01*
X214757000Y-74041000D01*
X214007750Y-74041000D01*
X213849000Y-74199750D01*
X212847000Y-74199750D01*
X212688250Y-74041000D01*
X211939000Y-74041000D01*
X211685000Y-74041000D01*
X211665000Y-74041000D01*
X211665000Y-73787000D01*
X211685000Y-73787000D01*
X211685000Y-73062750D01*
X211939000Y-73062750D01*
X211939000Y-73787000D01*
X212688250Y-73787000D01*
X212847000Y-73628250D01*
X212847000Y-73412690D01*
X213849000Y-73412690D01*
X213849000Y-73628250D01*
X214007750Y-73787000D01*
X214757000Y-73787000D01*
X214757000Y-73062750D01*
X214598250Y-72904000D01*
X214357691Y-72904000D01*
X214124302Y-73000673D01*
X213945673Y-73179301D01*
X213849000Y-73412690D01*
X212847000Y-73412690D01*
X212750327Y-73179301D01*
X212571698Y-73000673D01*
X212338309Y-72904000D01*
X212097750Y-72904000D01*
X211939000Y-73062750D01*
X211685000Y-73062750D01*
X211526250Y-72904000D01*
X211285691Y-72904000D01*
X211201000Y-72939080D01*
X211201000Y-72898000D01*
X211133329Y-72557794D01*
X210940618Y-72269382D01*
X210467863Y-71796627D01*
X210379507Y-71582788D01*
X210104659Y-71307460D01*
X209745370Y-71158270D01*
X209356337Y-71157931D01*
X208996788Y-71306493D01*
X208788000Y-71514917D01*
X208788000Y-68834000D01*
X210375760Y-68834000D01*
X210375760Y-70866000D01*
X210420038Y-71101317D01*
X210559110Y-71317441D01*
X210771310Y-71462431D01*
X211023200Y-71513440D01*
X214680800Y-71513440D01*
X214916117Y-71469162D01*
X215132241Y-71330090D01*
X215277231Y-71117890D01*
X215328240Y-70866000D01*
X215328240Y-68834000D01*
X215283962Y-68598683D01*
X215144890Y-68382559D01*
X214932690Y-68237569D01*
X214680800Y-68186560D01*
X211023200Y-68186560D01*
X210787883Y-68230838D01*
X210571759Y-68369910D01*
X210426769Y-68582110D01*
X210375760Y-68834000D01*
X208788000Y-68834000D01*
X208788000Y-67625630D01*
X209103631Y-67310000D01*
X212598000Y-67310000D01*
X212889605Y-67251996D01*
X213136815Y-67086815D01*
X213390815Y-66832816D01*
X213555996Y-66585605D01*
X213571021Y-66510069D01*
X213614000Y-66294000D01*
X213614000Y-64853140D01*
X213811441Y-64726090D01*
X213956431Y-64513890D01*
X213995000Y-64323431D01*
X213995000Y-64388310D01*
X214091673Y-64621699D01*
X214270302Y-64800327D01*
X214503691Y-64897000D01*
X214852250Y-64897000D01*
X215011000Y-64738250D01*
X215011000Y-63373000D01*
X215265000Y-63373000D01*
X215265000Y-64738250D01*
X215423750Y-64897000D01*
X215772309Y-64897000D01*
X216005698Y-64800327D01*
X216184327Y-64621699D01*
X216281000Y-64388310D01*
X216281000Y-63531750D01*
X216122250Y-63373000D01*
X215265000Y-63373000D01*
X215011000Y-63373000D01*
X214991000Y-63373000D01*
X214991000Y-63119000D01*
X215011000Y-63119000D01*
X215011000Y-61753750D01*
X215265000Y-61753750D01*
X215265000Y-63119000D01*
X216122250Y-63119000D01*
X216281000Y-62960250D01*
X216281000Y-62103690D01*
X216184327Y-61870301D01*
X216078808Y-61764782D01*
X218973141Y-61764782D01*
X219200808Y-62315780D01*
X219622003Y-62737710D01*
X219622931Y-62738095D01*
X219202290Y-63158003D01*
X218973661Y-63708602D01*
X218973141Y-64304782D01*
X219200808Y-64855780D01*
X219622003Y-65277710D01*
X219622931Y-65278095D01*
X219202290Y-65698003D01*
X218973661Y-66248602D01*
X218973141Y-66844782D01*
X219200808Y-67395780D01*
X219622003Y-67817710D01*
X219622931Y-67818095D01*
X219202290Y-68238003D01*
X218973661Y-68788602D01*
X218973141Y-69384782D01*
X219200808Y-69935780D01*
X219622003Y-70357710D01*
X219622931Y-70358095D01*
X219202290Y-70778003D01*
X218973661Y-71328602D01*
X218973141Y-71924782D01*
X219200808Y-72475780D01*
X219622003Y-72897710D01*
X219622931Y-72898095D01*
X219202290Y-73318003D01*
X218973661Y-73868602D01*
X218973141Y-74464782D01*
X219200808Y-75015780D01*
X219622003Y-75437710D01*
X219622931Y-75438095D01*
X219202290Y-75858003D01*
X218973661Y-76408602D01*
X218973141Y-77004782D01*
X219200808Y-77555780D01*
X219622003Y-77977710D01*
X219622931Y-77978095D01*
X219202290Y-78398003D01*
X218973661Y-78948602D01*
X218973141Y-79544782D01*
X219200808Y-80095780D01*
X219622003Y-80517710D01*
X219622931Y-80518095D01*
X219202290Y-80938003D01*
X218973661Y-81488602D01*
X218973141Y-82084782D01*
X219200808Y-82635780D01*
X219622003Y-83057710D01*
X219622931Y-83058095D01*
X219202290Y-83478003D01*
X218973661Y-84028602D01*
X218973141Y-84624782D01*
X219200808Y-85175780D01*
X219622003Y-85597710D01*
X219622931Y-85598095D01*
X219202290Y-86018003D01*
X218973661Y-86568602D01*
X218973141Y-87164782D01*
X219200808Y-87715780D01*
X219622003Y-88137710D01*
X219622931Y-88138095D01*
X219202290Y-88558003D01*
X218973661Y-89108602D01*
X218973141Y-89704782D01*
X219200808Y-90255780D01*
X219622003Y-90677710D01*
X219662537Y-90694541D01*
X219597800Y-90894195D01*
X220472000Y-91768395D01*
X221346200Y-90894195D01*
X221281601Y-90694967D01*
X221319780Y-90679192D01*
X221741710Y-90257997D01*
X221970339Y-89707398D01*
X221970859Y-89111218D01*
X221743192Y-88560220D01*
X221321997Y-88138290D01*
X221321069Y-88137905D01*
X221741710Y-87717997D01*
X221970339Y-87167398D01*
X221970859Y-86571218D01*
X221743192Y-86020220D01*
X221321997Y-85598290D01*
X221321069Y-85597905D01*
X221741710Y-85177997D01*
X221970339Y-84627398D01*
X221970859Y-84031218D01*
X221743192Y-83480220D01*
X221321997Y-83058290D01*
X221321069Y-83057905D01*
X221741710Y-82637997D01*
X221970339Y-82087398D01*
X221970859Y-81491218D01*
X221743192Y-80940220D01*
X221321997Y-80518290D01*
X221321069Y-80517905D01*
X221741710Y-80097997D01*
X221970339Y-79547398D01*
X221970859Y-78951218D01*
X221743192Y-78400220D01*
X221321997Y-77978290D01*
X221321069Y-77977905D01*
X221741710Y-77557997D01*
X221970339Y-77007398D01*
X221970859Y-76411218D01*
X221743192Y-75860220D01*
X221321997Y-75438290D01*
X221321069Y-75437905D01*
X221741710Y-75017997D01*
X221970339Y-74467398D01*
X221970859Y-73871218D01*
X221743192Y-73320220D01*
X221321997Y-72898290D01*
X221321069Y-72897905D01*
X221741710Y-72477997D01*
X221970339Y-71927398D01*
X221970859Y-71331218D01*
X221743192Y-70780220D01*
X221321997Y-70358290D01*
X221321069Y-70357905D01*
X221741710Y-69937997D01*
X221970339Y-69387398D01*
X221970859Y-68791218D01*
X221743192Y-68240220D01*
X221321997Y-67818290D01*
X221321069Y-67817905D01*
X221741710Y-67397997D01*
X221970339Y-66847398D01*
X221970859Y-66251218D01*
X221743192Y-65700220D01*
X221321997Y-65278290D01*
X221321069Y-65277905D01*
X221741710Y-64857997D01*
X221970339Y-64307398D01*
X221970859Y-63711218D01*
X221743192Y-63160220D01*
X221321997Y-62738290D01*
X221321069Y-62737905D01*
X221741710Y-62317997D01*
X221742095Y-62317069D01*
X222162003Y-62737710D01*
X222712602Y-62966339D01*
X223308782Y-62966859D01*
X223859780Y-62739192D01*
X224281710Y-62317997D01*
X224282095Y-62317069D01*
X224702003Y-62737710D01*
X225252602Y-62966339D01*
X225848782Y-62966859D01*
X226399780Y-62739192D01*
X226617546Y-62521805D01*
X227217800Y-62521805D01*
X227299741Y-62774516D01*
X227860030Y-62978248D01*
X228455635Y-62952058D01*
X228884259Y-62774516D01*
X228966200Y-62521805D01*
X228092000Y-61647605D01*
X227217800Y-62521805D01*
X226617546Y-62521805D01*
X226821710Y-62317997D01*
X226838541Y-62277463D01*
X227038195Y-62342200D01*
X227912395Y-61468000D01*
X227038195Y-60593800D01*
X226838967Y-60658399D01*
X226823192Y-60620220D01*
X226617526Y-60414195D01*
X227217800Y-60414195D01*
X228092000Y-61288395D01*
X228966200Y-60414195D01*
X228884259Y-60161484D01*
X228323970Y-59957752D01*
X227728365Y-59983942D01*
X227299741Y-60161484D01*
X227217800Y-60414195D01*
X226617526Y-60414195D01*
X226401997Y-60198290D01*
X225851398Y-59969661D01*
X225255218Y-59969141D01*
X224704220Y-60196808D01*
X224282290Y-60618003D01*
X224281905Y-60618931D01*
X223861997Y-60198290D01*
X223311398Y-59969661D01*
X222715218Y-59969141D01*
X222164220Y-60196808D01*
X221742290Y-60618003D01*
X221741905Y-60618931D01*
X221321997Y-60198290D01*
X220771398Y-59969661D01*
X220175218Y-59969141D01*
X219624220Y-60196808D01*
X219202290Y-60618003D01*
X218973661Y-61168602D01*
X218973141Y-61764782D01*
X216078808Y-61764782D01*
X216005698Y-61691673D01*
X215772309Y-61595000D01*
X215423750Y-61595000D01*
X215265000Y-61753750D01*
X215011000Y-61753750D01*
X214852250Y-61595000D01*
X214503691Y-61595000D01*
X214270302Y-61691673D01*
X214091673Y-61870301D01*
X213995000Y-62103690D01*
X213995000Y-62163887D01*
X213963162Y-61994683D01*
X213824090Y-61778559D01*
X213611890Y-61633569D01*
X213360000Y-61582560D01*
X212344000Y-61582560D01*
X212108683Y-61626838D01*
X211892559Y-61765910D01*
X211747569Y-61978110D01*
X211709457Y-62166314D01*
X211677162Y-61994683D01*
X211538090Y-61778559D01*
X211530122Y-61773114D01*
X212336796Y-60966440D01*
X212502000Y-60966440D01*
X212737317Y-60922162D01*
X212840646Y-60855671D01*
X212842302Y-60857327D01*
X213075691Y-60954000D01*
X213316250Y-60954000D01*
X213475000Y-60795250D01*
X213475000Y-60071000D01*
X213729000Y-60071000D01*
X213729000Y-60795250D01*
X213887750Y-60954000D01*
X214128309Y-60954000D01*
X214361698Y-60857327D01*
X214540327Y-60678699D01*
X214637000Y-60445310D01*
X214637000Y-60229750D01*
X214478250Y-60071000D01*
X213729000Y-60071000D01*
X213475000Y-60071000D01*
X213455000Y-60071000D01*
X213455000Y-59817000D01*
X213475000Y-59817000D01*
X213475000Y-59092750D01*
X213729000Y-59092750D01*
X213729000Y-59817000D01*
X214478250Y-59817000D01*
X214637000Y-59658250D01*
X214637000Y-59442690D01*
X214540327Y-59209301D01*
X214361698Y-59030673D01*
X214128309Y-58934000D01*
X213887750Y-58934000D01*
X213729000Y-59092750D01*
X213475000Y-59092750D01*
X213316250Y-58934000D01*
X213075691Y-58934000D01*
X212991000Y-58969080D01*
X212991000Y-57531000D01*
X241439764Y-57531000D01*
X246177394Y-62268630D01*
X246084030Y-62738000D01*
X246193263Y-63287151D01*
X246504332Y-63752698D01*
X246886418Y-64008000D01*
X246504332Y-64263302D01*
X246193263Y-64728849D01*
X246084030Y-65278000D01*
X246193263Y-65827151D01*
X246504332Y-66292698D01*
X246886418Y-66548000D01*
X246504332Y-66803302D01*
X246193263Y-67268849D01*
X246084030Y-67818000D01*
X246193263Y-68367151D01*
X246504332Y-68832698D01*
X246882151Y-69085149D01*
X246449500Y-69433104D01*
X246179633Y-69926181D01*
X246162096Y-70008961D01*
X246284085Y-70231000D01*
X247777000Y-70231000D01*
X247777000Y-70211000D01*
X248031000Y-70211000D01*
X248031000Y-70231000D01*
X248051000Y-70231000D01*
X248051000Y-70485000D01*
X248031000Y-70485000D01*
X248031000Y-72771000D01*
X248051000Y-72771000D01*
X248051000Y-73025000D01*
X248031000Y-73025000D01*
X248031000Y-73045000D01*
X247777000Y-73045000D01*
X247777000Y-73025000D01*
X246284085Y-73025000D01*
X246162096Y-73247039D01*
X246179633Y-73329819D01*
X246449500Y-73822896D01*
X246882151Y-74170851D01*
X246504332Y-74423302D01*
X246387594Y-74598013D01*
X246293794Y-74616671D01*
X246089629Y-74753090D01*
X246005382Y-74809382D01*
X244735382Y-76079382D01*
X244542671Y-76367794D01*
X244475000Y-76708000D01*
X244475000Y-83631369D01*
X241961109Y-81117479D01*
X241994737Y-81067151D01*
X242103970Y-80518000D01*
X241994737Y-79968849D01*
X241683668Y-79503302D01*
X241301582Y-79248000D01*
X241683668Y-78992698D01*
X241994737Y-78527151D01*
X242103970Y-77978000D01*
X241994737Y-77428849D01*
X241683668Y-76963302D01*
X241301582Y-76708000D01*
X241683668Y-76452698D01*
X241994737Y-75987151D01*
X242103970Y-75438000D01*
X241994737Y-74888849D01*
X241683668Y-74423302D01*
X241305849Y-74170851D01*
X241738500Y-73822896D01*
X242008367Y-73329819D01*
X242025904Y-73247039D01*
X241903915Y-73025000D01*
X240411000Y-73025000D01*
X240411000Y-73045000D01*
X240157000Y-73045000D01*
X240157000Y-73025000D01*
X238664085Y-73025000D01*
X238542096Y-73247039D01*
X238559633Y-73329819D01*
X238829500Y-73822896D01*
X239262151Y-74170851D01*
X238884332Y-74423302D01*
X238573263Y-74888849D01*
X238464030Y-75438000D01*
X238557394Y-75907370D01*
X238379000Y-76085764D01*
X238379000Y-70980236D01*
X238563094Y-70796142D01*
X238829500Y-71282896D01*
X239258607Y-71628000D01*
X238829500Y-71973104D01*
X238559633Y-72466181D01*
X238542096Y-72548961D01*
X238664085Y-72771000D01*
X240157000Y-72771000D01*
X240157000Y-70485000D01*
X240411000Y-70485000D01*
X240411000Y-72771000D01*
X241903915Y-72771000D01*
X242025904Y-72548961D01*
X242008367Y-72466181D01*
X241738500Y-71973104D01*
X241309393Y-71628000D01*
X241738500Y-71282896D01*
X242008367Y-70789819D01*
X242025904Y-70707039D01*
X246162096Y-70707039D01*
X246179633Y-70789819D01*
X246449500Y-71282896D01*
X246878607Y-71628000D01*
X246449500Y-71973104D01*
X246179633Y-72466181D01*
X246162096Y-72548961D01*
X246284085Y-72771000D01*
X247777000Y-72771000D01*
X247777000Y-70485000D01*
X246284085Y-70485000D01*
X246162096Y-70707039D01*
X242025904Y-70707039D01*
X241903915Y-70485000D01*
X240411000Y-70485000D01*
X240157000Y-70485000D01*
X240137000Y-70485000D01*
X240137000Y-70231000D01*
X240157000Y-70231000D01*
X240157000Y-70211000D01*
X240411000Y-70211000D01*
X240411000Y-70231000D01*
X241903915Y-70231000D01*
X242025904Y-70008961D01*
X242008367Y-69926181D01*
X241738500Y-69433104D01*
X241305849Y-69085149D01*
X241683668Y-68832698D01*
X241994737Y-68367151D01*
X242103970Y-67818000D01*
X241994737Y-67268849D01*
X241683668Y-66803302D01*
X241301582Y-66548000D01*
X241683668Y-66292698D01*
X241994737Y-65827151D01*
X242103970Y-65278000D01*
X241994737Y-64728849D01*
X241683668Y-64263302D01*
X241301582Y-64008000D01*
X241683668Y-63752698D01*
X241994737Y-63287151D01*
X242103970Y-62738000D01*
X241994737Y-62188849D01*
X241683668Y-61723302D01*
X241218121Y-61412233D01*
X240668970Y-61303000D01*
X239899030Y-61303000D01*
X239349879Y-61412233D01*
X238884332Y-61723302D01*
X238573263Y-62188849D01*
X238464030Y-62738000D01*
X238573263Y-63287151D01*
X238606891Y-63337479D01*
X237459185Y-64485185D01*
X237294004Y-64732395D01*
X237236000Y-65024000D01*
X237236000Y-66232369D01*
X237210854Y-66257516D01*
X237210859Y-66251218D01*
X236983192Y-65700220D01*
X236561997Y-65278290D01*
X236561069Y-65277905D01*
X236981710Y-64857997D01*
X237210339Y-64307398D01*
X237210859Y-63711218D01*
X236983192Y-63160220D01*
X236561997Y-62738290D01*
X236561069Y-62737905D01*
X236981710Y-62317997D01*
X237210339Y-61767398D01*
X237210859Y-61171218D01*
X236983192Y-60620220D01*
X236561997Y-60198290D01*
X236011398Y-59969661D01*
X235415218Y-59969141D01*
X234864220Y-60196808D01*
X234442290Y-60618003D01*
X234441905Y-60618931D01*
X234021997Y-60198290D01*
X233471398Y-59969661D01*
X232875218Y-59969141D01*
X232324220Y-60196808D01*
X231902290Y-60618003D01*
X231901905Y-60618931D01*
X231481997Y-60198290D01*
X230931398Y-59969661D01*
X230335218Y-59969141D01*
X229784220Y-60196808D01*
X229362290Y-60618003D01*
X229345459Y-60658537D01*
X229145805Y-60593800D01*
X228271605Y-61468000D01*
X229145805Y-62342200D01*
X229345033Y-62277601D01*
X229360808Y-62315780D01*
X229782003Y-62737710D01*
X230332602Y-62966339D01*
X230928782Y-62966859D01*
X231479780Y-62739192D01*
X231901710Y-62317997D01*
X231902095Y-62317069D01*
X232322003Y-62737710D01*
X232872602Y-62966339D01*
X233468782Y-62966859D01*
X234019780Y-62739192D01*
X234441710Y-62317997D01*
X234442095Y-62317069D01*
X234862003Y-62737710D01*
X234862931Y-62738095D01*
X234442290Y-63158003D01*
X234213661Y-63708602D01*
X234213141Y-64304782D01*
X234440808Y-64855780D01*
X234862003Y-65277710D01*
X234862931Y-65278095D01*
X234442290Y-65698003D01*
X234213661Y-66248602D01*
X234213141Y-66844782D01*
X234440808Y-67395780D01*
X234862003Y-67817710D01*
X234862931Y-67818095D01*
X234442290Y-68238003D01*
X234213661Y-68788602D01*
X234213141Y-69384782D01*
X234440808Y-69935780D01*
X234862003Y-70357710D01*
X234862931Y-70358095D01*
X234442290Y-70778003D01*
X234213661Y-71328602D01*
X234213141Y-71924782D01*
X234440808Y-72475780D01*
X234862003Y-72897710D01*
X234862931Y-72898095D01*
X234442290Y-73318003D01*
X234213661Y-73868602D01*
X234213141Y-74464782D01*
X234440808Y-75015780D01*
X234862003Y-75437710D01*
X234862931Y-75438095D01*
X234442290Y-75858003D01*
X234213661Y-76408602D01*
X234213141Y-77004782D01*
X234440808Y-77555780D01*
X234862003Y-77977710D01*
X234862931Y-77978095D01*
X234442290Y-78398003D01*
X234213661Y-78948602D01*
X234213141Y-79544782D01*
X234440808Y-80095780D01*
X234862003Y-80517710D01*
X234862931Y-80518095D01*
X234442290Y-80938003D01*
X234213661Y-81488602D01*
X234213141Y-82084782D01*
X234440808Y-82635780D01*
X234862003Y-83057710D01*
X234862931Y-83058095D01*
X234442290Y-83478003D01*
X234213661Y-84028602D01*
X234213141Y-84624782D01*
X234440808Y-85175780D01*
X234862003Y-85597710D01*
X234862931Y-85598095D01*
X234442290Y-86018003D01*
X234213661Y-86568602D01*
X234213141Y-87164782D01*
X234440808Y-87715780D01*
X234862003Y-88137710D01*
X234862931Y-88138095D01*
X234442290Y-88558003D01*
X234213661Y-89108602D01*
X234213141Y-89704782D01*
X234440808Y-90255780D01*
X234862003Y-90677710D01*
X234862931Y-90678095D01*
X234442290Y-91098003D01*
X234213661Y-91648602D01*
X234213141Y-92244782D01*
X234440808Y-92795780D01*
X234862003Y-93217710D01*
X234902537Y-93234541D01*
X234837800Y-93434195D01*
X235712000Y-94308395D01*
X236586200Y-93434195D01*
X236521601Y-93234967D01*
X236559780Y-93219192D01*
X236981710Y-92797997D01*
X237210339Y-92247398D01*
X237210859Y-91651218D01*
X236983192Y-91100220D01*
X236561997Y-90678290D01*
X236561069Y-90677905D01*
X236981710Y-90257997D01*
X237210339Y-89707398D01*
X237210859Y-89111218D01*
X236983192Y-88560220D01*
X236561997Y-88138290D01*
X236561069Y-88137905D01*
X236794644Y-87904737D01*
X236797586Y-87909141D01*
X236861382Y-88004618D01*
X238366560Y-89509796D01*
X238366560Y-91186000D01*
X238410838Y-91421317D01*
X238549910Y-91637441D01*
X238762110Y-91782431D01*
X239014000Y-91833440D01*
X241046000Y-91833440D01*
X241281317Y-91789162D01*
X241497441Y-91650090D01*
X241599198Y-91501163D01*
X241938190Y-91727670D01*
X242570000Y-91853345D01*
X243201810Y-91727670D01*
X243332000Y-91640680D01*
X243332000Y-93156369D01*
X241238370Y-95250000D01*
X237029519Y-95250000D01*
X237222248Y-94719970D01*
X237196058Y-94124365D01*
X237018516Y-93695741D01*
X236765805Y-93613800D01*
X235891605Y-94488000D01*
X235905748Y-94502143D01*
X235726143Y-94681748D01*
X235712000Y-94667605D01*
X235697858Y-94681748D01*
X235518253Y-94502143D01*
X235532395Y-94488000D01*
X234658195Y-93613800D01*
X234405484Y-93695741D01*
X234201752Y-94256030D01*
X234227942Y-94851635D01*
X234392950Y-95250000D01*
X228407631Y-95250000D01*
X227106815Y-93949185D01*
X227106814Y-93949184D01*
X226859605Y-93784004D01*
X226568000Y-93726000D01*
X221778635Y-93726000D01*
X221743192Y-93640220D01*
X221321997Y-93218290D01*
X221281463Y-93201459D01*
X221346200Y-93001805D01*
X220472000Y-92127605D01*
X219597800Y-93001805D01*
X219662399Y-93201033D01*
X219624220Y-93216808D01*
X219316061Y-93524430D01*
X217507661Y-91716030D01*
X218961752Y-91716030D01*
X218987942Y-92311635D01*
X219165484Y-92740259D01*
X219418195Y-92822200D01*
X220292395Y-91948000D01*
X220651605Y-91948000D01*
X221525805Y-92822200D01*
X221778516Y-92740259D01*
X221982248Y-92179970D01*
X221956058Y-91584365D01*
X221778516Y-91155741D01*
X221525805Y-91073800D01*
X220651605Y-91948000D01*
X220292395Y-91948000D01*
X219418195Y-91073800D01*
X219165484Y-91155741D01*
X218961752Y-91716030D01*
X217507661Y-91716030D01*
X217424000Y-91632370D01*
X217424000Y-91132680D01*
X217829433Y-90861778D01*
X218187325Y-90326155D01*
X218313000Y-89694345D01*
X218313000Y-89629655D01*
X218187325Y-88997845D01*
X217829433Y-88462222D01*
X217424000Y-88191320D01*
X217424000Y-74325740D01*
X217431440Y-74289000D01*
X217431440Y-73539000D01*
X217387162Y-73303683D01*
X217248090Y-73087559D01*
X217035890Y-72942569D01*
X216784000Y-72891560D01*
X215984000Y-72891560D01*
X215748683Y-72935838D01*
X215645354Y-73002329D01*
X215643698Y-73000673D01*
X215410309Y-72904000D01*
X215169750Y-72904000D01*
X215011000Y-73062750D01*
X215011000Y-73787000D01*
X215031000Y-73787000D01*
X215031000Y-74041000D01*
X215011000Y-74041000D01*
X215011000Y-74765250D01*
X215169750Y-74924000D01*
X215410309Y-74924000D01*
X215643698Y-74827327D01*
X215645068Y-74825957D01*
X215732110Y-74885431D01*
X215900000Y-74919430D01*
X215900000Y-76708000D01*
X214907870Y-76708000D01*
X214907870Y-76220320D01*
X214863592Y-75985003D01*
X214724520Y-75768879D01*
X214512320Y-75623889D01*
X214260430Y-75572880D01*
X212459570Y-75572880D01*
X212224253Y-75617158D01*
X212008129Y-75756230D01*
X211863139Y-75968430D01*
X211812130Y-76220320D01*
X211812130Y-78719680D01*
X211856408Y-78954997D01*
X211995480Y-79171121D01*
X212207680Y-79316111D01*
X212459570Y-79367120D01*
X214260430Y-79367120D01*
X214495747Y-79322842D01*
X214711871Y-79183770D01*
X214856861Y-78971570D01*
X214907870Y-78719680D01*
X214907870Y-78232000D01*
X215900000Y-78232000D01*
X215900000Y-83948975D01*
X215873698Y-83922673D01*
X215640309Y-83826000D01*
X215399750Y-83826000D01*
X215241000Y-83984750D01*
X215241000Y-84709000D01*
X215261000Y-84709000D01*
X215261000Y-84963000D01*
X215241000Y-84963000D01*
X215241000Y-85687250D01*
X215399750Y-85846000D01*
X215640309Y-85846000D01*
X215873698Y-85749327D01*
X215900000Y-85723025D01*
X215900000Y-88191320D01*
X215494567Y-88462222D01*
X215385565Y-88625354D01*
X214986818Y-88255615D01*
X214504944Y-88056025D01*
X214249000Y-88175164D01*
X214249000Y-89535000D01*
X214269000Y-89535000D01*
X214269000Y-89789000D01*
X214249000Y-89789000D01*
X214249000Y-91148836D01*
X214504944Y-91267975D01*
X214986818Y-91068385D01*
X215385565Y-90698646D01*
X215494567Y-90861778D01*
X215900000Y-91132680D01*
X215900000Y-91948000D01*
X215958004Y-92239605D01*
X216123185Y-92486815D01*
X218663184Y-95026815D01*
X218910395Y-95191996D01*
X219162084Y-95242060D01*
X219200808Y-95335780D01*
X219622003Y-95757710D01*
X220172602Y-95986339D01*
X220768782Y-95986859D01*
X221319780Y-95759192D01*
X221741710Y-95337997D01*
X221778250Y-95250000D01*
X226252370Y-95250000D01*
X227553184Y-96550815D01*
X227800395Y-96715996D01*
X228092000Y-96774000D01*
X241554000Y-96774000D01*
X241845605Y-96715996D01*
X242092815Y-96550815D01*
X244632815Y-94010816D01*
X244797996Y-93763605D01*
X244811495Y-93695741D01*
X244856000Y-93472000D01*
X244856000Y-91569203D01*
X244899910Y-91637441D01*
X245112110Y-91782431D01*
X245364000Y-91833440D01*
X247396000Y-91833440D01*
X247631317Y-91789162D01*
X247847441Y-91650090D01*
X247949198Y-91501163D01*
X248288190Y-91727670D01*
X248920000Y-91853345D01*
X249551810Y-91727670D01*
X250087433Y-91369778D01*
X250445325Y-90834155D01*
X250571000Y-90202345D01*
X250571000Y-90137655D01*
X250511037Y-89836199D01*
X250818618Y-89528618D01*
X250899212Y-89408000D01*
X251011329Y-89240206D01*
X251079000Y-88900000D01*
X251079000Y-69596000D01*
X251011329Y-69255794D01*
X250818618Y-68967382D01*
X249714889Y-67863653D01*
X249723970Y-67818000D01*
X249614737Y-67268849D01*
X249303668Y-66803302D01*
X248921582Y-66548000D01*
X249303668Y-66292698D01*
X249614737Y-65827151D01*
X249723970Y-65278000D01*
X249614737Y-64728849D01*
X249303668Y-64263302D01*
X248921582Y-64008000D01*
X249303668Y-63752698D01*
X249614737Y-63287151D01*
X249723970Y-62738000D01*
X249614737Y-62188849D01*
X249303668Y-61723302D01*
X248838121Y-61412233D01*
X248288970Y-61303000D01*
X247726236Y-61303000D01*
X242436618Y-56013382D01*
X242148206Y-55820671D01*
X241808000Y-55753000D01*
X205712270Y-55753000D01*
X205672090Y-55690559D01*
X205501500Y-55574000D01*
X251258000Y-55574000D01*
X251258000Y-96826000D01*
X198830000Y-96826000D01*
X198830000Y-89543120D01*
X201573165Y-89543120D01*
X201782353Y-89903969D01*
X202719650Y-90281504D01*
X203730077Y-90271613D01*
X204617647Y-89903969D01*
X204826835Y-89543120D01*
X203200000Y-87916285D01*
X201573165Y-89543120D01*
X198830000Y-89543120D01*
X198830000Y-87256330D01*
X200655176Y-87256330D01*
X200665067Y-88266757D01*
X201032711Y-89154327D01*
X201393560Y-89363515D01*
X203020395Y-87736680D01*
X203379605Y-87736680D01*
X205006440Y-89363515D01*
X205367289Y-89154327D01*
X205572038Y-88646000D01*
X209918560Y-88646000D01*
X209918560Y-90678000D01*
X209962838Y-90913317D01*
X210101910Y-91129441D01*
X210314110Y-91274431D01*
X210566000Y-91325440D01*
X212598000Y-91325440D01*
X212833317Y-91281162D01*
X213049441Y-91142090D01*
X213160840Y-90979052D01*
X213257182Y-91068385D01*
X213739056Y-91267975D01*
X213995000Y-91148836D01*
X213995000Y-89789000D01*
X213975000Y-89789000D01*
X213975000Y-89535000D01*
X213995000Y-89535000D01*
X213995000Y-88175164D01*
X213739056Y-88056025D01*
X213257182Y-88255615D01*
X213159602Y-88346097D01*
X213062090Y-88194559D01*
X212849890Y-88049569D01*
X212598000Y-87998560D01*
X210566000Y-87998560D01*
X210330683Y-88042838D01*
X210114559Y-88181910D01*
X209969569Y-88394110D01*
X209918560Y-88646000D01*
X205572038Y-88646000D01*
X205744824Y-88217030D01*
X205734933Y-87206603D01*
X205460217Y-86543380D01*
X206272165Y-86543380D01*
X206481353Y-86904229D01*
X207418650Y-87281764D01*
X208429077Y-87271873D01*
X209316647Y-86904229D01*
X209525835Y-86543380D01*
X207899000Y-84916545D01*
X206272165Y-86543380D01*
X205460217Y-86543380D01*
X205367289Y-86319033D01*
X205006440Y-86109845D01*
X203379605Y-87736680D01*
X203020395Y-87736680D01*
X201393560Y-86109845D01*
X201032711Y-86319033D01*
X200655176Y-87256330D01*
X198830000Y-87256330D01*
X198830000Y-85930240D01*
X201573165Y-85930240D01*
X203200000Y-87557075D01*
X204826835Y-85930240D01*
X204617647Y-85569391D01*
X203680350Y-85191856D01*
X202669923Y-85201747D01*
X201782353Y-85569391D01*
X201573165Y-85930240D01*
X198830000Y-85930240D01*
X198830000Y-82240221D01*
X200659560Y-82240221D01*
X200822735Y-82635134D01*
X200809860Y-82699860D01*
X200867864Y-82991465D01*
X201033045Y-83238675D01*
X201263805Y-83392864D01*
X201759327Y-83889252D01*
X202692546Y-84276759D01*
X203703021Y-84277640D01*
X203753965Y-84256590D01*
X205354176Y-84256590D01*
X205364067Y-85267017D01*
X205731711Y-86154587D01*
X206092560Y-86363775D01*
X207719395Y-84736940D01*
X208078605Y-84736940D01*
X209705440Y-86363775D01*
X210066289Y-86154587D01*
X210443824Y-85217290D01*
X210433933Y-84206863D01*
X210066289Y-83319293D01*
X209705440Y-83110105D01*
X208078605Y-84736940D01*
X207719395Y-84736940D01*
X206092560Y-83110105D01*
X205731711Y-83319293D01*
X205354176Y-84256590D01*
X203753965Y-84256590D01*
X204636915Y-83891763D01*
X205352052Y-83177873D01*
X205454770Y-82930500D01*
X206272165Y-82930500D01*
X207899000Y-84557335D01*
X209525835Y-82930500D01*
X209316647Y-82569651D01*
X208379350Y-82192116D01*
X207368923Y-82202007D01*
X206481353Y-82569651D01*
X206272165Y-82930500D01*
X205454770Y-82930500D01*
X205739559Y-82244654D01*
X205740440Y-81234179D01*
X205459815Y-80555015D01*
X206532816Y-79482015D01*
X206689179Y-79248000D01*
X206697996Y-79234805D01*
X206756000Y-78943200D01*
X206756000Y-73914000D01*
X206697996Y-73622395D01*
X206532815Y-73375185D01*
X206057835Y-72900205D01*
X206044897Y-72891560D01*
X205810625Y-72735024D01*
X205519020Y-72677020D01*
X205255870Y-72677020D01*
X205255870Y-72189340D01*
X205211592Y-71954023D01*
X205072520Y-71737899D01*
X204860320Y-71592909D01*
X204608430Y-71541900D01*
X204470000Y-71541900D01*
X204470000Y-70952100D01*
X204608430Y-70952100D01*
X204843747Y-70907822D01*
X205059871Y-70768750D01*
X205204861Y-70556550D01*
X205255870Y-70304660D01*
X205255870Y-67805300D01*
X205211592Y-67569983D01*
X205072520Y-67353859D01*
X204860320Y-67208869D01*
X204608430Y-67157860D01*
X202807570Y-67157860D01*
X202572253Y-67202138D01*
X202356129Y-67341210D01*
X202211139Y-67553410D01*
X202160130Y-67805300D01*
X202160130Y-70304660D01*
X202204408Y-70539977D01*
X202343480Y-70756101D01*
X202555680Y-70901091D01*
X202807570Y-70952100D01*
X202946000Y-70952100D01*
X202946000Y-71541900D01*
X202807570Y-71541900D01*
X202572253Y-71586178D01*
X202356129Y-71725250D01*
X202211139Y-71937450D01*
X202160130Y-72189340D01*
X202160130Y-74688700D01*
X202204408Y-74924017D01*
X202343480Y-75140141D01*
X202555680Y-75285131D01*
X202807570Y-75336140D01*
X204608430Y-75336140D01*
X204843747Y-75291862D01*
X205059871Y-75152790D01*
X205204861Y-74940590D01*
X205232000Y-74806574D01*
X205232000Y-76033397D01*
X205146757Y-75827602D01*
X204968129Y-75648973D01*
X204734740Y-75552300D01*
X203993750Y-75552300D01*
X203835000Y-75711050D01*
X203835000Y-77309980D01*
X203855000Y-77309980D01*
X203855000Y-77563980D01*
X203835000Y-77563980D01*
X203835000Y-77583980D01*
X203581000Y-77583980D01*
X203581000Y-77563980D01*
X202331320Y-77563980D01*
X202172570Y-77722730D01*
X202172570Y-78812969D01*
X202269243Y-79046358D01*
X202447871Y-79224987D01*
X202538156Y-79262384D01*
X201763085Y-79582637D01*
X201047948Y-80296527D01*
X200660441Y-81229746D01*
X200659560Y-82240221D01*
X198830000Y-82240221D01*
X198830000Y-76060991D01*
X202172570Y-76060991D01*
X202172570Y-77151230D01*
X202331320Y-77309980D01*
X203581000Y-77309980D01*
X203581000Y-75711050D01*
X203422250Y-75552300D01*
X202681260Y-75552300D01*
X202447871Y-75648973D01*
X202269243Y-75827602D01*
X202172570Y-76060991D01*
X198830000Y-76060991D01*
X198830000Y-60742000D01*
X201560560Y-60742000D01*
X201560560Y-61742000D01*
X201604838Y-61977317D01*
X201743910Y-62193441D01*
X201956110Y-62338431D01*
X202208000Y-62389440D01*
X202946000Y-62389440D01*
X202946000Y-63159900D01*
X202807570Y-63159900D01*
X202572253Y-63204178D01*
X202356129Y-63343250D01*
X202211139Y-63555450D01*
X202160130Y-63807340D01*
X202160130Y-66306700D01*
X202204408Y-66542017D01*
X202343480Y-66758141D01*
X202555680Y-66903131D01*
X202807570Y-66954140D01*
X204608430Y-66954140D01*
X204843747Y-66909862D01*
X205059871Y-66770790D01*
X205204861Y-66558590D01*
X205255870Y-66306700D01*
X205255870Y-63807340D01*
X205211592Y-63572023D01*
X205072520Y-63355899D01*
X204860320Y-63210909D01*
X204608430Y-63159900D01*
X204470000Y-63159900D01*
X204470000Y-62389440D01*
X205208000Y-62389440D01*
X205443317Y-62345162D01*
X205659441Y-62206090D01*
X205804431Y-61993890D01*
X205855440Y-61742000D01*
X205855440Y-60742000D01*
X205811162Y-60506683D01*
X205672090Y-60290559D01*
X205459890Y-60145569D01*
X205208000Y-60094560D01*
X202208000Y-60094560D01*
X201972683Y-60138838D01*
X201756559Y-60277910D01*
X201611569Y-60490110D01*
X201560560Y-60742000D01*
X198830000Y-60742000D01*
X198830000Y-55574000D01*
X201918040Y-55574000D01*
X201756559Y-55677910D01*
M02*
