G04 #@! TF.FileFunction,Legend,Top*
%FSLAX46Y46*%
G04 Gerber Fmt 4.6, Leading zero omitted, Abs format (unit mm)*
G04 Created by KiCad (PCBNEW 4.0.2-stable) date 8/12/2016 8:24:09 AM*
%MOMM*%
G01*
G04 APERTURE LIST*
%ADD10C,0.100000*%
%ADD11C,0.177800*%
%ADD12C,0.150000*%
%ADD13C,0.400000*%
G04 APERTURE END LIST*
D10*
D11*
X216769143Y-96628857D02*
X216769143Y-95661238D01*
X217340571Y-96145048D02*
X216197714Y-96145048D01*
X215840571Y-94451714D02*
X215840571Y-95056476D01*
X216554857Y-95116952D01*
X216483429Y-95056476D01*
X216412000Y-94935524D01*
X216412000Y-94633143D01*
X216483429Y-94512190D01*
X216554857Y-94451714D01*
X216697714Y-94391238D01*
X217054857Y-94391238D01*
X217197714Y-94451714D01*
X217269143Y-94512190D01*
X217340571Y-94633143D01*
X217340571Y-94935524D01*
X217269143Y-95056476D01*
X217197714Y-95116952D01*
X215840571Y-94028381D02*
X217340571Y-93605047D01*
X215840571Y-93181714D01*
X213372000Y-95963619D02*
X213300571Y-96084571D01*
X213300571Y-96266000D01*
X213372000Y-96447428D01*
X213514857Y-96568381D01*
X213657714Y-96628857D01*
X213943429Y-96689333D01*
X214157714Y-96689333D01*
X214443429Y-96628857D01*
X214586286Y-96568381D01*
X214729143Y-96447428D01*
X214800571Y-96266000D01*
X214800571Y-96145048D01*
X214729143Y-95963619D01*
X214657714Y-95903143D01*
X214157714Y-95903143D01*
X214157714Y-96145048D01*
X214800571Y-95358857D02*
X213300571Y-95358857D01*
X214800571Y-94633143D01*
X213300571Y-94633143D01*
X214800571Y-94028381D02*
X213300571Y-94028381D01*
X213300571Y-93726000D01*
X213372000Y-93544572D01*
X213514857Y-93423619D01*
X213657714Y-93363143D01*
X213943429Y-93302667D01*
X214157714Y-93302667D01*
X214443429Y-93363143D01*
X214586286Y-93423619D01*
X214729143Y-93544572D01*
X214800571Y-93726000D01*
X214800571Y-94028381D01*
X212189143Y-96042238D02*
X212260571Y-95860810D01*
X212260571Y-95558429D01*
X212189143Y-95437476D01*
X212117714Y-95377000D01*
X211974857Y-95316524D01*
X211832000Y-95316524D01*
X211689143Y-95377000D01*
X211617714Y-95437476D01*
X211546286Y-95558429D01*
X211474857Y-95800333D01*
X211403429Y-95921286D01*
X211332000Y-95981762D01*
X211189143Y-96042238D01*
X211046286Y-96042238D01*
X210903429Y-95981762D01*
X210832000Y-95921286D01*
X210760571Y-95800333D01*
X210760571Y-95497953D01*
X210832000Y-95316524D01*
X212260571Y-94772238D02*
X210760571Y-94772238D01*
X210832000Y-93502238D02*
X210760571Y-93623190D01*
X210760571Y-93804619D01*
X210832000Y-93986047D01*
X210974857Y-94107000D01*
X211117714Y-94167476D01*
X211403429Y-94227952D01*
X211617714Y-94227952D01*
X211903429Y-94167476D01*
X212046286Y-94107000D01*
X212189143Y-93986047D01*
X212260571Y-93804619D01*
X212260571Y-93683667D01*
X212189143Y-93502238D01*
X212117714Y-93441762D01*
X211617714Y-93441762D01*
X211617714Y-93683667D01*
X249598571Y-96459524D02*
X248098571Y-96459524D01*
X249170000Y-96036191D01*
X248098571Y-95612857D01*
X249598571Y-95612857D01*
X249027143Y-95008095D02*
X249027143Y-94040476D01*
X247058571Y-96459524D02*
X245558571Y-96459524D01*
X246630000Y-96036191D01*
X245558571Y-95612857D01*
X247058571Y-95612857D01*
X246487143Y-95008095D02*
X246487143Y-94040476D01*
X247058571Y-94524286D02*
X245915714Y-94524286D01*
X243502571Y-96459524D02*
X242002571Y-96459524D01*
X243074000Y-96036191D01*
X242002571Y-95612857D01*
X243502571Y-95612857D01*
X242931143Y-95008095D02*
X242931143Y-94040476D01*
X240962571Y-96459524D02*
X239462571Y-96459524D01*
X240534000Y-96036191D01*
X239462571Y-95612857D01*
X240962571Y-95612857D01*
X240391143Y-95008095D02*
X240391143Y-94040476D01*
X240962571Y-94524286D02*
X239819714Y-94524286D01*
D12*
X247769000Y-82813000D02*
X247769000Y-81543000D01*
X240419000Y-82813000D02*
X240419000Y-81543000D01*
X240419000Y-60443000D02*
X240419000Y-61713000D01*
X247769000Y-60443000D02*
X247769000Y-61713000D01*
X247769000Y-82813000D02*
X240419000Y-82813000D01*
X247769000Y-60443000D02*
X240419000Y-60443000D01*
X247769000Y-81543000D02*
X249054000Y-81543000D01*
X247769000Y-60443000D02*
X240419000Y-60443000D01*
D13*
X249025210Y-82296000D02*
G75*
G03X249025210Y-82296000I-359210J0D01*
G01*
D12*
X247650000Y-88900000D02*
X250190000Y-88900000D01*
X244830000Y-88620000D02*
X246380000Y-88620000D01*
X247650000Y-88900000D02*
X247650000Y-91440000D01*
X246380000Y-91720000D02*
X244830000Y-91720000D01*
X244830000Y-91720000D02*
X244830000Y-88620000D01*
X247650000Y-91440000D02*
X250190000Y-91440000D01*
X250190000Y-91440000D02*
X250190000Y-88900000D01*
X210032000Y-91212000D02*
X210032000Y-88112000D01*
X241300000Y-88900000D02*
X243840000Y-88900000D01*
X238480000Y-88620000D02*
X240030000Y-88620000D01*
X241300000Y-88900000D02*
X241300000Y-91440000D01*
X240030000Y-91720000D02*
X238480000Y-91720000D01*
X238480000Y-91720000D02*
X238480000Y-88620000D01*
X241300000Y-91440000D02*
X243840000Y-91440000D01*
X243840000Y-91440000D02*
X243840000Y-88900000D01*
X210712000Y-73314000D02*
X211412000Y-73314000D01*
X211412000Y-74514000D02*
X210712000Y-74514000D01*
X214014000Y-84236000D02*
X214714000Y-84236000D01*
X214714000Y-85436000D02*
X214014000Y-85436000D01*
X212502000Y-59344000D02*
X213202000Y-59344000D01*
X213202000Y-60544000D02*
X212502000Y-60544000D01*
X215984000Y-74514000D02*
X215284000Y-74514000D01*
X215284000Y-73314000D02*
X215984000Y-73314000D01*
X198699120Y-91937840D02*
X207700880Y-91937840D01*
X198699120Y-95437960D02*
X207700880Y-95437960D01*
X207700880Y-95437960D02*
X207700880Y-80937100D01*
X207700880Y-80937100D02*
X198699120Y-80937100D01*
X198699120Y-80937100D02*
X198699120Y-95437960D01*
X201957940Y-73638860D02*
X202308460Y-73638860D01*
X205458060Y-73638860D02*
X205107540Y-73638860D01*
X201957940Y-77688440D02*
X202308460Y-77688440D01*
X201957940Y-73187560D02*
X202308460Y-73187560D01*
X205458060Y-73187560D02*
X205107540Y-73187560D01*
X205458060Y-77688440D02*
X205107540Y-77688440D01*
X201957940Y-73187560D02*
X201957940Y-77688440D01*
X205458060Y-73187560D02*
X205458060Y-77688440D01*
X201957940Y-65256860D02*
X202308460Y-65256860D01*
X205458060Y-65256860D02*
X205107540Y-65256860D01*
X201957940Y-69306440D02*
X202308460Y-69306440D01*
X201957940Y-64805560D02*
X202308460Y-64805560D01*
X205458060Y-64805560D02*
X205107540Y-64805560D01*
X205458060Y-69306440D02*
X205107540Y-69306440D01*
X201957940Y-64805560D02*
X201957940Y-69306440D01*
X205458060Y-64805560D02*
X205458060Y-69306440D01*
X211609940Y-77669840D02*
X211960460Y-77669840D01*
X215110060Y-77669840D02*
X214759540Y-77669840D01*
X211609940Y-81719420D02*
X211960460Y-81719420D01*
X211609940Y-77218540D02*
X211960460Y-77218540D01*
X215110060Y-77218540D02*
X214759540Y-77218540D01*
X215110060Y-81719420D02*
X214759540Y-81719420D01*
X211609940Y-77218540D02*
X211609940Y-81719420D01*
X215110060Y-77218540D02*
X215110060Y-81719420D01*
X201983000Y-57418000D02*
X201983000Y-60466000D01*
X205433000Y-60466000D02*
X205433000Y-57418000D01*
X216408000Y-65024000D02*
X216408000Y-61976000D01*
X216408000Y-61976000D02*
X209296000Y-61976000D01*
X209296000Y-61976000D02*
X209296000Y-65024000D01*
X216408000Y-68072000D02*
X216408000Y-68834000D01*
X216408000Y-68834000D02*
X214884000Y-71120000D01*
X214884000Y-71120000D02*
X210820000Y-71120000D01*
X210820000Y-71120000D02*
X209296000Y-68834000D01*
X209296000Y-68834000D02*
X209296000Y-68072000D01*
X243332095Y-58634381D02*
X243332095Y-59443905D01*
X243379714Y-59539143D01*
X243427333Y-59586762D01*
X243522571Y-59634381D01*
X243713048Y-59634381D01*
X243808286Y-59586762D01*
X243855905Y-59539143D01*
X243903524Y-59443905D01*
X243903524Y-58634381D01*
X244332095Y-58729619D02*
X244379714Y-58682000D01*
X244474952Y-58634381D01*
X244713048Y-58634381D01*
X244808286Y-58682000D01*
X244855905Y-58729619D01*
X244903524Y-58824857D01*
X244903524Y-58920095D01*
X244855905Y-59062952D01*
X244284476Y-59634381D01*
X244903524Y-59634381D01*
X235378667Y-58380381D02*
X235378667Y-59094667D01*
X235331047Y-59237524D01*
X235235809Y-59332762D01*
X235092952Y-59380381D01*
X234997714Y-59380381D01*
X236378667Y-59380381D02*
X235807238Y-59380381D01*
X236092952Y-59380381D02*
X236092952Y-58380381D01*
X235997714Y-58523238D01*
X235902476Y-58618476D01*
X235807238Y-58666095D01*
X218821524Y-58380381D02*
X219392953Y-58380381D01*
X219107238Y-59380381D02*
X219107238Y-58380381D01*
X219726286Y-58856571D02*
X220059620Y-58856571D01*
X220202477Y-59380381D02*
X219726286Y-59380381D01*
X219726286Y-58380381D01*
X220202477Y-58380381D01*
X220631048Y-58856571D02*
X220964382Y-58856571D01*
X221107239Y-59380381D02*
X220631048Y-59380381D01*
X220631048Y-58380381D01*
X221107239Y-58380381D01*
X221535810Y-59380381D02*
X221535810Y-58380381D01*
X222107239Y-59380381D01*
X222107239Y-58380381D01*
X222535810Y-59332762D02*
X222678667Y-59380381D01*
X222916763Y-59380381D01*
X223012001Y-59332762D01*
X223059620Y-59285143D01*
X223107239Y-59189905D01*
X223107239Y-59094667D01*
X223059620Y-58999429D01*
X223012001Y-58951810D01*
X222916763Y-58904190D01*
X222726286Y-58856571D01*
X222631048Y-58808952D01*
X222583429Y-58761333D01*
X222535810Y-58666095D01*
X222535810Y-58570857D01*
X222583429Y-58475619D01*
X222631048Y-58428000D01*
X222726286Y-58380381D01*
X222964382Y-58380381D01*
X223107239Y-58428000D01*
X223726286Y-58904190D02*
X223726286Y-59380381D01*
X223392953Y-58380381D02*
X223726286Y-58904190D01*
X224059620Y-58380381D01*
X225059620Y-58380381D02*
X225678668Y-58380381D01*
X225345334Y-58761333D01*
X225488192Y-58761333D01*
X225583430Y-58808952D01*
X225631049Y-58856571D01*
X225678668Y-58951810D01*
X225678668Y-59189905D01*
X225631049Y-59285143D01*
X225583430Y-59332762D01*
X225488192Y-59380381D01*
X225202477Y-59380381D01*
X225107239Y-59332762D01*
X225059620Y-59285143D01*
X226107239Y-59285143D02*
X226154858Y-59332762D01*
X226107239Y-59380381D01*
X226059620Y-59332762D01*
X226107239Y-59285143D01*
X226107239Y-59380381D01*
X226535810Y-58475619D02*
X226583429Y-58428000D01*
X226678667Y-58380381D01*
X226916763Y-58380381D01*
X227012001Y-58428000D01*
X227059620Y-58475619D01*
X227107239Y-58570857D01*
X227107239Y-58666095D01*
X227059620Y-58808952D01*
X226488191Y-59380381D01*
X227107239Y-59380381D01*
X246300667Y-85304381D02*
X246300667Y-86018667D01*
X246253047Y-86161524D01*
X246157809Y-86256762D01*
X246014952Y-86304381D01*
X245919714Y-86304381D01*
X246729238Y-85399619D02*
X246776857Y-85352000D01*
X246872095Y-85304381D01*
X247110191Y-85304381D01*
X247205429Y-85352000D01*
X247253048Y-85399619D01*
X247300667Y-85494857D01*
X247300667Y-85590095D01*
X247253048Y-85732952D01*
X246681619Y-86304381D01*
X247300667Y-86304381D01*
X210740667Y-84796381D02*
X210740667Y-85510667D01*
X210693047Y-85653524D01*
X210597809Y-85748762D01*
X210454952Y-85796381D01*
X210359714Y-85796381D01*
X211121619Y-84796381D02*
X211740667Y-84796381D01*
X211407333Y-85177333D01*
X211550191Y-85177333D01*
X211645429Y-85224952D01*
X211693048Y-85272571D01*
X211740667Y-85367810D01*
X211740667Y-85605905D01*
X211693048Y-85701143D01*
X211645429Y-85748762D01*
X211550191Y-85796381D01*
X211264476Y-85796381D01*
X211169238Y-85748762D01*
X211121619Y-85701143D01*
X239950667Y-85304381D02*
X239950667Y-86018667D01*
X239903047Y-86161524D01*
X239807809Y-86256762D01*
X239664952Y-86304381D01*
X239569714Y-86304381D01*
X240855429Y-85637714D02*
X240855429Y-86304381D01*
X240617333Y-85256762D02*
X240379238Y-85971048D01*
X240998286Y-85971048D01*
X210965334Y-72761143D02*
X210917715Y-72808762D01*
X210774858Y-72856381D01*
X210679620Y-72856381D01*
X210536762Y-72808762D01*
X210441524Y-72713524D01*
X210393905Y-72618286D01*
X210346286Y-72427810D01*
X210346286Y-72284952D01*
X210393905Y-72094476D01*
X210441524Y-71999238D01*
X210536762Y-71904000D01*
X210679620Y-71856381D01*
X210774858Y-71856381D01*
X210917715Y-71904000D01*
X210965334Y-71951619D01*
X211917715Y-72856381D02*
X211346286Y-72856381D01*
X211632000Y-72856381D02*
X211632000Y-71856381D01*
X211536762Y-71999238D01*
X211441524Y-72094476D01*
X211346286Y-72142095D01*
X217003334Y-85193143D02*
X216955715Y-85240762D01*
X216812858Y-85288381D01*
X216717620Y-85288381D01*
X216574762Y-85240762D01*
X216479524Y-85145524D01*
X216431905Y-85050286D01*
X216384286Y-84859810D01*
X216384286Y-84716952D01*
X216431905Y-84526476D01*
X216479524Y-84431238D01*
X216574762Y-84336000D01*
X216717620Y-84288381D01*
X216812858Y-84288381D01*
X216955715Y-84336000D01*
X217003334Y-84383619D01*
X217384286Y-84383619D02*
X217431905Y-84336000D01*
X217527143Y-84288381D01*
X217765239Y-84288381D01*
X217860477Y-84336000D01*
X217908096Y-84383619D01*
X217955715Y-84478857D01*
X217955715Y-84574095D01*
X217908096Y-84716952D01*
X217336667Y-85288381D01*
X217955715Y-85288381D01*
X212755334Y-58791143D02*
X212707715Y-58838762D01*
X212564858Y-58886381D01*
X212469620Y-58886381D01*
X212326762Y-58838762D01*
X212231524Y-58743524D01*
X212183905Y-58648286D01*
X212136286Y-58457810D01*
X212136286Y-58314952D01*
X212183905Y-58124476D01*
X212231524Y-58029238D01*
X212326762Y-57934000D01*
X212469620Y-57886381D01*
X212564858Y-57886381D01*
X212707715Y-57934000D01*
X212755334Y-57981619D01*
X213088667Y-57886381D02*
X213707715Y-57886381D01*
X213374381Y-58267333D01*
X213517239Y-58267333D01*
X213612477Y-58314952D01*
X213660096Y-58362571D01*
X213707715Y-58457810D01*
X213707715Y-58695905D01*
X213660096Y-58791143D01*
X213612477Y-58838762D01*
X213517239Y-58886381D01*
X213231524Y-58886381D01*
X213136286Y-58838762D01*
X213088667Y-58791143D01*
X215467334Y-72747143D02*
X215419715Y-72794762D01*
X215276858Y-72842381D01*
X215181620Y-72842381D01*
X215038762Y-72794762D01*
X214943524Y-72699524D01*
X214895905Y-72604286D01*
X214848286Y-72413810D01*
X214848286Y-72270952D01*
X214895905Y-72080476D01*
X214943524Y-71985238D01*
X215038762Y-71890000D01*
X215181620Y-71842381D01*
X215276858Y-71842381D01*
X215419715Y-71890000D01*
X215467334Y-71937619D01*
X216324477Y-72175714D02*
X216324477Y-72842381D01*
X216086381Y-71794762D02*
X215848286Y-72509048D01*
X216467334Y-72509048D01*
X200255143Y-94231625D02*
X200302762Y-94279244D01*
X200350381Y-94422101D01*
X200350381Y-94517339D01*
X200302762Y-94660197D01*
X200207524Y-94755435D01*
X200112286Y-94803054D01*
X199921810Y-94850673D01*
X199778952Y-94850673D01*
X199588476Y-94803054D01*
X199493238Y-94755435D01*
X199398000Y-94660197D01*
X199350381Y-94517339D01*
X199350381Y-94422101D01*
X199398000Y-94279244D01*
X199445619Y-94231625D01*
X199350381Y-93612578D02*
X199350381Y-93422101D01*
X199398000Y-93326863D01*
X199493238Y-93231625D01*
X199683714Y-93184006D01*
X200017048Y-93184006D01*
X200207524Y-93231625D01*
X200302762Y-93326863D01*
X200350381Y-93422101D01*
X200350381Y-93612578D01*
X200302762Y-93707816D01*
X200207524Y-93803054D01*
X200017048Y-93850673D01*
X199683714Y-93850673D01*
X199493238Y-93803054D01*
X199398000Y-93707816D01*
X199350381Y-93612578D01*
X200350381Y-92755435D02*
X199350381Y-92755435D01*
X200350381Y-92184006D01*
X199350381Y-92184006D01*
X200350381Y-91184006D02*
X200350381Y-91755435D01*
X200350381Y-91469721D02*
X199350381Y-91469721D01*
X199493238Y-91564959D01*
X199588476Y-91660197D01*
X199636095Y-91755435D01*
X201620381Y-76176095D02*
X200620381Y-76176095D01*
X200620381Y-75938000D01*
X200668000Y-75795142D01*
X200763238Y-75699904D01*
X200858476Y-75652285D01*
X201048952Y-75604666D01*
X201191810Y-75604666D01*
X201382286Y-75652285D01*
X201477524Y-75699904D01*
X201572762Y-75795142D01*
X201620381Y-75938000D01*
X201620381Y-76176095D01*
X201620381Y-74652285D02*
X201620381Y-75223714D01*
X201620381Y-74938000D02*
X200620381Y-74938000D01*
X200763238Y-75033238D01*
X200858476Y-75128476D01*
X200906095Y-75223714D01*
X201366381Y-67794095D02*
X200366381Y-67794095D01*
X200366381Y-67556000D01*
X200414000Y-67413142D01*
X200509238Y-67317904D01*
X200604476Y-67270285D01*
X200794952Y-67222666D01*
X200937810Y-67222666D01*
X201128286Y-67270285D01*
X201223524Y-67317904D01*
X201318762Y-67413142D01*
X201366381Y-67556000D01*
X201366381Y-67794095D01*
X200461619Y-66841714D02*
X200414000Y-66794095D01*
X200366381Y-66698857D01*
X200366381Y-66460761D01*
X200414000Y-66365523D01*
X200461619Y-66317904D01*
X200556857Y-66270285D01*
X200652095Y-66270285D01*
X200794952Y-66317904D01*
X201366381Y-66889333D01*
X201366381Y-66270285D01*
X211018381Y-78175075D02*
X210018381Y-78175075D01*
X210018381Y-77936980D01*
X210066000Y-77794122D01*
X210161238Y-77698884D01*
X210256476Y-77651265D01*
X210446952Y-77603646D01*
X210589810Y-77603646D01*
X210780286Y-77651265D01*
X210875524Y-77698884D01*
X210970762Y-77794122D01*
X211018381Y-77936980D01*
X211018381Y-78175075D01*
X210018381Y-77270313D02*
X210018381Y-76651265D01*
X210399333Y-76984599D01*
X210399333Y-76841741D01*
X210446952Y-76746503D01*
X210494571Y-76698884D01*
X210589810Y-76651265D01*
X210827905Y-76651265D01*
X210923143Y-76698884D01*
X210970762Y-76746503D01*
X211018381Y-76841741D01*
X211018381Y-77127456D01*
X210970762Y-77222694D01*
X210923143Y-77270313D01*
X200842571Y-59261333D02*
X200842571Y-59594667D01*
X201366381Y-59594667D02*
X200366381Y-59594667D01*
X200366381Y-59118476D01*
X201366381Y-58213714D02*
X201366381Y-58785143D01*
X201366381Y-58499429D02*
X200366381Y-58499429D01*
X200509238Y-58594667D01*
X200604476Y-58689905D01*
X200652095Y-58785143D01*
X207010095Y-62190381D02*
X207010095Y-62999905D01*
X207057714Y-63095143D01*
X207105333Y-63142762D01*
X207200571Y-63190381D01*
X207391048Y-63190381D01*
X207486286Y-63142762D01*
X207533905Y-63095143D01*
X207581524Y-62999905D01*
X207581524Y-62190381D01*
X208581524Y-63190381D02*
X208010095Y-63190381D01*
X208295809Y-63190381D02*
X208295809Y-62190381D01*
X208200571Y-62333238D01*
X208105333Y-62428476D01*
X208010095Y-62476095D01*
M02*
