G04 #@! TF.FileFunction,Legend,Bot*
%FSLAX46Y46*%
G04 Gerber Fmt 4.6, Leading zero omitted, Abs format (unit mm)*
G04 Created by KiCad (PCBNEW 4.0.2-stable) date 8/12/2016 8:24:09 AM*
%MOMM*%
G01*
G04 APERTURE LIST*
%ADD10C,0.100000*%
%ADD11C,0.300000*%
G04 APERTURE END LIST*
D10*
D11*
X214664856Y-58263714D02*
X214736285Y-58335143D01*
X214950571Y-58406571D01*
X215093428Y-58406571D01*
X215307713Y-58335143D01*
X215450571Y-58192286D01*
X215521999Y-58049429D01*
X215593428Y-57763714D01*
X215593428Y-57549429D01*
X215521999Y-57263714D01*
X215450571Y-57120857D01*
X215307713Y-56978000D01*
X215093428Y-56906571D01*
X214950571Y-56906571D01*
X214736285Y-56978000D01*
X214664856Y-57049429D01*
X214021999Y-58406571D02*
X214021999Y-56906571D01*
X213379142Y-58406571D02*
X213379142Y-57620857D01*
X213450571Y-57478000D01*
X213593428Y-57406571D01*
X213807713Y-57406571D01*
X213950571Y-57478000D01*
X214021999Y-57549429D01*
X212450570Y-58406571D02*
X212593428Y-58335143D01*
X212664856Y-58192286D01*
X212664856Y-56906571D01*
X211664856Y-58406571D02*
X211807714Y-58335143D01*
X211879142Y-58263714D01*
X211950571Y-58120857D01*
X211950571Y-57692286D01*
X211879142Y-57549429D01*
X211807714Y-57478000D01*
X211664856Y-57406571D01*
X211450571Y-57406571D01*
X211307714Y-57478000D01*
X211236285Y-57549429D01*
X211164856Y-57692286D01*
X211164856Y-58120857D01*
X211236285Y-58263714D01*
X211307714Y-58335143D01*
X211450571Y-58406571D01*
X211664856Y-58406571D01*
X209950571Y-58335143D02*
X210093428Y-58406571D01*
X210379142Y-58406571D01*
X210521999Y-58335143D01*
X210593428Y-58192286D01*
X210593428Y-57620857D01*
X210521999Y-57478000D01*
X210379142Y-57406571D01*
X210093428Y-57406571D01*
X209950571Y-57478000D01*
X209879142Y-57620857D01*
X209879142Y-57763714D01*
X210593428Y-57906571D01*
X207593428Y-57620857D02*
X208093428Y-57620857D01*
X208093428Y-58406571D02*
X208093428Y-56906571D01*
X207379142Y-56906571D01*
X206593428Y-58406571D02*
X206736286Y-58335143D01*
X206807714Y-58192286D01*
X206807714Y-56906571D01*
X205450572Y-58335143D02*
X205593429Y-58406571D01*
X205879143Y-58406571D01*
X206022000Y-58335143D01*
X206093429Y-58192286D01*
X206093429Y-57620857D01*
X206022000Y-57478000D01*
X205879143Y-57406571D01*
X205593429Y-57406571D01*
X205450572Y-57478000D01*
X205379143Y-57620857D01*
X205379143Y-57763714D01*
X206093429Y-57906571D01*
X204736286Y-58406571D02*
X204736286Y-57406571D01*
X204736286Y-57549429D02*
X204664858Y-57478000D01*
X204522000Y-57406571D01*
X204307715Y-57406571D01*
X204164858Y-57478000D01*
X204093429Y-57620857D01*
X204093429Y-58406571D01*
X204093429Y-57620857D02*
X204022000Y-57478000D01*
X203879143Y-57406571D01*
X203664858Y-57406571D01*
X203522000Y-57478000D01*
X203450572Y-57620857D01*
X203450572Y-58406571D01*
X202736286Y-58406571D02*
X202736286Y-57406571D01*
X202736286Y-56906571D02*
X202807715Y-56978000D01*
X202736286Y-57049429D01*
X202664858Y-56978000D01*
X202736286Y-56906571D01*
X202736286Y-57049429D01*
X202022000Y-57406571D02*
X202022000Y-58406571D01*
X202022000Y-57549429D02*
X201950572Y-57478000D01*
X201807714Y-57406571D01*
X201593429Y-57406571D01*
X201450572Y-57478000D01*
X201379143Y-57620857D01*
X201379143Y-58406571D01*
X200022000Y-57406571D02*
X200022000Y-58620857D01*
X200093429Y-58763714D01*
X200164857Y-58835143D01*
X200307714Y-58906571D01*
X200522000Y-58906571D01*
X200664857Y-58835143D01*
X200022000Y-58335143D02*
X200164857Y-58406571D01*
X200450571Y-58406571D01*
X200593429Y-58335143D01*
X200664857Y-58263714D01*
X200736286Y-58120857D01*
X200736286Y-57692286D01*
X200664857Y-57549429D01*
X200593429Y-57478000D01*
X200450571Y-57406571D01*
X200164857Y-57406571D01*
X200022000Y-57478000D01*
X213771998Y-59949429D02*
X213914856Y-59878000D01*
X213986284Y-59806571D01*
X214057713Y-59663714D01*
X214057713Y-59592286D01*
X213986284Y-59449429D01*
X213914856Y-59378000D01*
X213771998Y-59306571D01*
X213486284Y-59306571D01*
X213343427Y-59378000D01*
X213271998Y-59449429D01*
X213200570Y-59592286D01*
X213200570Y-59663714D01*
X213271998Y-59806571D01*
X213343427Y-59878000D01*
X213486284Y-59949429D01*
X213771998Y-59949429D01*
X213914856Y-60020857D01*
X213986284Y-60092286D01*
X214057713Y-60235143D01*
X214057713Y-60520857D01*
X213986284Y-60663714D01*
X213914856Y-60735143D01*
X213771998Y-60806571D01*
X213486284Y-60806571D01*
X213343427Y-60735143D01*
X213271998Y-60663714D01*
X213200570Y-60520857D01*
X213200570Y-60235143D01*
X213271998Y-60092286D01*
X213343427Y-60020857D01*
X213486284Y-59949429D01*
X211486285Y-59235143D02*
X212771999Y-61163714D01*
X210200570Y-60806571D02*
X211057713Y-60806571D01*
X210629141Y-60806571D02*
X210629141Y-59306571D01*
X210771998Y-59520857D01*
X210914856Y-59663714D01*
X211057713Y-59735143D01*
X208771999Y-60806571D02*
X209629142Y-60806571D01*
X209200570Y-60806571D02*
X209200570Y-59306571D01*
X209343427Y-59520857D01*
X209486285Y-59663714D01*
X209629142Y-59735143D01*
X207057714Y-59235143D02*
X208343428Y-61163714D01*
X206629142Y-59449429D02*
X206557713Y-59378000D01*
X206414856Y-59306571D01*
X206057713Y-59306571D01*
X205914856Y-59378000D01*
X205843427Y-59449429D01*
X205771999Y-59592286D01*
X205771999Y-59735143D01*
X205843427Y-59949429D01*
X206700570Y-60806571D01*
X205771999Y-60806571D01*
X204843428Y-59306571D02*
X204700571Y-59306571D01*
X204557714Y-59378000D01*
X204486285Y-59449429D01*
X204414856Y-59592286D01*
X204343428Y-59878000D01*
X204343428Y-60235143D01*
X204414856Y-60520857D01*
X204486285Y-60663714D01*
X204557714Y-60735143D01*
X204700571Y-60806571D01*
X204843428Y-60806571D01*
X204986285Y-60735143D01*
X205057714Y-60663714D01*
X205129142Y-60520857D01*
X205200571Y-60235143D01*
X205200571Y-59878000D01*
X205129142Y-59592286D01*
X205057714Y-59449429D01*
X204986285Y-59378000D01*
X204843428Y-59306571D01*
X202914857Y-60806571D02*
X203772000Y-60806571D01*
X203343428Y-60806571D02*
X203343428Y-59306571D01*
X203486285Y-59520857D01*
X203629143Y-59663714D01*
X203772000Y-59735143D01*
X201629143Y-59306571D02*
X201914857Y-59306571D01*
X202057714Y-59378000D01*
X202129143Y-59449429D01*
X202272000Y-59663714D01*
X202343429Y-59949429D01*
X202343429Y-60520857D01*
X202272000Y-60663714D01*
X202200572Y-60735143D01*
X202057714Y-60806571D01*
X201772000Y-60806571D01*
X201629143Y-60735143D01*
X201557714Y-60663714D01*
X201486286Y-60520857D01*
X201486286Y-60163714D01*
X201557714Y-60020857D01*
X201629143Y-59949429D01*
X201772000Y-59878000D01*
X202057714Y-59878000D01*
X202200572Y-59949429D01*
X202272000Y-60020857D01*
X202343429Y-60163714D01*
X250211999Y-58336571D02*
X250211999Y-56836571D01*
X249711999Y-57908000D01*
X249211999Y-56836571D01*
X249211999Y-58336571D01*
X248640570Y-57336571D02*
X248283427Y-58336571D01*
X247926285Y-57336571D02*
X248283427Y-58336571D01*
X248426285Y-58693714D01*
X248497713Y-58765143D01*
X248640570Y-58836571D01*
X247140570Y-58336571D02*
X247283428Y-58265143D01*
X247354856Y-58193714D01*
X247426285Y-58050857D01*
X247426285Y-57622286D01*
X247354856Y-57479429D01*
X247283428Y-57408000D01*
X247140570Y-57336571D01*
X246926285Y-57336571D01*
X246783428Y-57408000D01*
X246711999Y-57479429D01*
X246640570Y-57622286D01*
X246640570Y-58050857D01*
X246711999Y-58193714D01*
X246783428Y-58265143D01*
X246926285Y-58336571D01*
X247140570Y-58336571D01*
X245140570Y-58336571D02*
X245640570Y-57622286D01*
X245997713Y-58336571D02*
X245997713Y-56836571D01*
X245426285Y-56836571D01*
X245283427Y-56908000D01*
X245211999Y-56979429D01*
X245140570Y-57122286D01*
X245140570Y-57336571D01*
X245211999Y-57479429D01*
X245283427Y-57550857D01*
X245426285Y-57622286D01*
X245997713Y-57622286D01*
X243854856Y-58336571D02*
X243854856Y-57550857D01*
X243926285Y-57408000D01*
X244069142Y-57336571D01*
X244354856Y-57336571D01*
X244497713Y-57408000D01*
X243854856Y-58265143D02*
X243997713Y-58336571D01*
X244354856Y-58336571D01*
X244497713Y-58265143D01*
X244569142Y-58122286D01*
X244569142Y-57979429D01*
X244497713Y-57836571D01*
X244354856Y-57765143D01*
X243997713Y-57765143D01*
X243854856Y-57693714D01*
X243140570Y-57336571D02*
X243140570Y-58836571D01*
X243140570Y-57408000D02*
X242997713Y-57336571D01*
X242711999Y-57336571D01*
X242569142Y-57408000D01*
X242497713Y-57479429D01*
X242426284Y-57622286D01*
X242426284Y-58050857D01*
X242497713Y-58193714D01*
X242569142Y-58265143D01*
X242711999Y-58336571D01*
X242997713Y-58336571D01*
X243140570Y-58265143D01*
X241997713Y-57336571D02*
X241426284Y-57336571D01*
X241783427Y-56836571D02*
X241783427Y-58122286D01*
X241711999Y-58265143D01*
X241569141Y-58336571D01*
X241426284Y-58336571D01*
X240711998Y-58336571D02*
X240854856Y-58265143D01*
X240926284Y-58193714D01*
X240997713Y-58050857D01*
X240997713Y-57622286D01*
X240926284Y-57479429D01*
X240854856Y-57408000D01*
X240711998Y-57336571D01*
X240497713Y-57336571D01*
X240354856Y-57408000D01*
X240283427Y-57479429D01*
X240211998Y-57622286D01*
X240211998Y-58050857D01*
X240283427Y-58193714D01*
X240354856Y-58265143D01*
X240497713Y-58336571D01*
X240711998Y-58336571D01*
X239569141Y-58336571D02*
X239569141Y-57336571D01*
X239569141Y-57622286D02*
X239497713Y-57479429D01*
X239426284Y-57408000D01*
X239283427Y-57336571D01*
X239140570Y-57336571D01*
X236640570Y-58193714D02*
X236711999Y-58265143D01*
X236926285Y-58336571D01*
X237069142Y-58336571D01*
X237283427Y-58265143D01*
X237426285Y-58122286D01*
X237497713Y-57979429D01*
X237569142Y-57693714D01*
X237569142Y-57479429D01*
X237497713Y-57193714D01*
X237426285Y-57050857D01*
X237283427Y-56908000D01*
X237069142Y-56836571D01*
X236926285Y-56836571D01*
X236711999Y-56908000D01*
X236640570Y-56979429D01*
X235783427Y-58336571D02*
X235926285Y-58265143D01*
X235997713Y-58193714D01*
X236069142Y-58050857D01*
X236069142Y-57622286D01*
X235997713Y-57479429D01*
X235926285Y-57408000D01*
X235783427Y-57336571D01*
X235569142Y-57336571D01*
X235426285Y-57408000D01*
X235354856Y-57479429D01*
X235283427Y-57622286D01*
X235283427Y-58050857D01*
X235354856Y-58193714D01*
X235426285Y-58265143D01*
X235569142Y-58336571D01*
X235783427Y-58336571D01*
X234640570Y-57336571D02*
X234640570Y-58336571D01*
X234640570Y-57479429D02*
X234569142Y-57408000D01*
X234426284Y-57336571D01*
X234211999Y-57336571D01*
X234069142Y-57408000D01*
X233997713Y-57550857D01*
X233997713Y-58336571D01*
X233497713Y-57336571D02*
X232926284Y-57336571D01*
X233283427Y-56836571D02*
X233283427Y-58122286D01*
X233211999Y-58265143D01*
X233069141Y-58336571D01*
X232926284Y-58336571D01*
X232426284Y-58336571D02*
X232426284Y-57336571D01*
X232426284Y-57622286D02*
X232354856Y-57479429D01*
X232283427Y-57408000D01*
X232140570Y-57336571D01*
X231997713Y-57336571D01*
X231283427Y-58336571D02*
X231426285Y-58265143D01*
X231497713Y-58193714D01*
X231569142Y-58050857D01*
X231569142Y-57622286D01*
X231497713Y-57479429D01*
X231426285Y-57408000D01*
X231283427Y-57336571D01*
X231069142Y-57336571D01*
X230926285Y-57408000D01*
X230854856Y-57479429D01*
X230783427Y-57622286D01*
X230783427Y-58050857D01*
X230854856Y-58193714D01*
X230926285Y-58265143D01*
X231069142Y-58336571D01*
X231283427Y-58336571D01*
X229926284Y-58336571D02*
X230069142Y-58265143D01*
X230140570Y-58122286D01*
X230140570Y-56836571D01*
X229140570Y-58336571D02*
X229283428Y-58265143D01*
X229354856Y-58122286D01*
X229354856Y-56836571D01*
X227997714Y-58265143D02*
X228140571Y-58336571D01*
X228426285Y-58336571D01*
X228569142Y-58265143D01*
X228640571Y-58122286D01*
X228640571Y-57550857D01*
X228569142Y-57408000D01*
X228426285Y-57336571D01*
X228140571Y-57336571D01*
X227997714Y-57408000D01*
X227926285Y-57550857D01*
X227926285Y-57693714D01*
X228640571Y-57836571D01*
X227283428Y-58336571D02*
X227283428Y-57336571D01*
X227283428Y-57622286D02*
X227212000Y-57479429D01*
X227140571Y-57408000D01*
X226997714Y-57336571D01*
X226854857Y-57336571D01*
X225354857Y-57336571D02*
X224997714Y-58336571D01*
X224640572Y-57336571D01*
X223283429Y-58336571D02*
X224140572Y-58336571D01*
X223712000Y-58336571D02*
X223712000Y-56836571D01*
X223854857Y-57050857D01*
X223997715Y-57193714D01*
X224140572Y-57265143D01*
X222640572Y-58193714D02*
X222569144Y-58265143D01*
X222640572Y-58336571D01*
X222712001Y-58265143D01*
X222640572Y-58193714D01*
X222640572Y-58336571D01*
X221640572Y-56836571D02*
X221497715Y-56836571D01*
X221354858Y-56908000D01*
X221283429Y-56979429D01*
X221212000Y-57122286D01*
X221140572Y-57408000D01*
X221140572Y-57765143D01*
X221212000Y-58050857D01*
X221283429Y-58193714D01*
X221354858Y-58265143D01*
X221497715Y-58336571D01*
X221640572Y-58336571D01*
X221783429Y-58265143D01*
X221854858Y-58193714D01*
X221926286Y-58050857D01*
X221997715Y-57765143D01*
X221997715Y-57408000D01*
X221926286Y-57122286D01*
X221854858Y-56979429D01*
X221783429Y-56908000D01*
X221640572Y-56836571D01*
M02*
