M48
;DRILL file {KiCad 4.0.2-stable} date 8/12/2016 8:24:05 AM
;FORMAT={-:-/ absolute / inch / decimal}
FMAT,2
INCH,TZ
T1C0.013
T2C0.031
T3C0.040
T4C0.118
%
G90
G05
M72
T1
X8.25Y-2.84
X8.29Y-2.58
T2
X9.46Y-2.47
X9.46Y-2.57
X9.46Y-2.67
X9.46Y-2.77
X9.46Y-2.87
X9.46Y-2.97
X9.46Y-3.07
X9.46Y-3.17
X9.76Y-2.47
X9.76Y-2.57
X9.76Y-2.67
X9.76Y-2.77
X9.76Y-2.87
X9.76Y-2.97
X9.76Y-3.07
X9.76Y-3.17
T3
X8.33Y-3.53
X8.43Y-3.53
X8.53Y-3.53
X8.68Y-2.42
X8.68Y-2.52
X8.68Y-2.62
X8.68Y-2.72
X8.68Y-2.82
X8.68Y-2.92
X8.68Y-3.02
X8.68Y-3.12
X8.68Y-3.22
X8.68Y-3.32
X8.68Y-3.42
X8.68Y-3.52
X8.68Y-3.62
X8.68Y-3.72
X8.78Y-2.42
X8.88Y-2.42
X8.98Y-2.42
X9.08Y-2.42
X9.18Y-2.42
X9.28Y-2.42
X9.28Y-2.52
X9.28Y-2.62
X9.28Y-2.72
X9.28Y-2.82
X9.28Y-2.92
X9.28Y-3.02
X9.28Y-3.12
X9.28Y-3.22
X9.28Y-3.32
X9.28Y-3.42
X9.28Y-3.52
X9.28Y-3.62
X9.28Y-3.72
X9.45Y-3.55
X9.55Y-3.55
X9.7Y-3.55
X9.8Y-3.55
T4
X8.Y-3.218
X8.Y-3.4542
X8.185Y-3.3361
T0
M30
